%TF.GenerationSoftware,Altium Limited,Altium Designer,25.8.1 (18)*%
G04 Layer_Color=16711935*
%FSLAX45Y45*%
%MOMM*%
%TF.SameCoordinates,D030ABF7-A58C-4A07-9546-7BFCEFCD6942*%
%TF.FilePolarity,Negative*%
%TF.FileFunction,Soldermask,Bot*%
%TF.Part,Single*%
G01*
G75*
%TA.AperFunction,ComponentPad*%
%ADD39O,1.35320X1.25320*%
%ADD40C,1.60320*%
%ADD41C,1.75320*%
%ADD42R,1.75320X1.75320*%
G04:AMPARAMS|DCode=43|XSize=1.6032mm|YSize=1.6032mm|CornerRadius=0.4516mm|HoleSize=0mm|Usage=FLASHONLY|Rotation=90.000|XOffset=0mm|YOffset=0mm|HoleType=Round|Shape=RoundedRectangle|*
%AMROUNDEDRECTD43*
21,1,1.60320,0.70000,0,0,90.0*
21,1,0.70000,1.60320,0,0,90.0*
1,1,0.90320,0.35000,0.35000*
1,1,0.90320,0.35000,-0.35000*
1,1,0.90320,-0.35000,-0.35000*
1,1,0.90320,-0.35000,0.35000*
%
%ADD43ROUNDEDRECTD43*%
%TA.AperFunction,ViaPad*%
%ADD44C,1.47320*%
%TA.AperFunction,ConnectorPad*%
%ADD45O,0.95320X1.50320*%
%ADD46R,0.60320X1.55320*%
%ADD47R,2.00320X2.10320*%
G36*
X11183329Y2772095D02*
X11184635Y2771835D01*
X11185896Y2771407D01*
X11187091Y2770818D01*
X11188198Y2770078D01*
X11189200Y2769200D01*
X11190078Y2768198D01*
X11190818Y2767091D01*
X11191407Y2765896D01*
X11191835Y2764635D01*
X11192095Y2763329D01*
X11192182Y2762000D01*
Y2572000D01*
X11192095Y2570671D01*
X11191835Y2569365D01*
X11191407Y2568104D01*
X11190818Y2566909D01*
X11190078Y2565802D01*
X11189200Y2564800D01*
X11188198Y2563922D01*
X11187091Y2563182D01*
X11185896Y2562593D01*
X11184635Y2562165D01*
X11183329Y2561905D01*
X11182000Y2561818D01*
X11005065D01*
X11003736Y2561905D01*
X11002430Y2562165D01*
X11001168Y2562593D01*
X10979117Y2571727D01*
X10979116Y2571727D01*
X10978527Y2572018D01*
X10977922Y2572316D01*
X10977554Y2572562D01*
X10976814Y2573057D01*
X10976347Y2573467D01*
X10975813Y2573934D01*
X10975811Y2573936D01*
X10958936Y2590811D01*
X10958934Y2590813D01*
X10958057Y2591814D01*
X10957316Y2592922D01*
X10956727Y2594116D01*
X10947593Y2616168D01*
X10947165Y2617429D01*
X10946905Y2618736D01*
X10946818Y2620065D01*
D01*
Y2620065D01*
Y2632000D01*
Y2702000D01*
Y2713935D01*
X10946905Y2715264D01*
X10947165Y2716570D01*
X10947593Y2717831D01*
X10956727Y2739882D01*
X10956727Y2739884D01*
X10957018Y2740473D01*
X10957316Y2741078D01*
X10957562Y2741445D01*
X10958057Y2742186D01*
X10958467Y2742653D01*
X10958934Y2743187D01*
X10958936Y2743189D01*
X10975813Y2760065D01*
X10976814Y2760943D01*
X10977922Y2761683D01*
X10979116Y2762272D01*
X11001168Y2771407D01*
X11002430Y2771835D01*
X11003736Y2772095D01*
X11005065Y2772182D01*
X11182000D01*
X11183329Y2772095D01*
D02*
G37*
G36*
X11880264D02*
X11881570Y2771835D01*
X11882831Y2771407D01*
X11904884Y2762272D01*
X11906078Y2761683D01*
X11907185Y2760943D01*
X11908187Y2760065D01*
X11925063Y2743189D01*
X11925065Y2743187D01*
X11925943Y2742186D01*
X11926683Y2741078D01*
X11927272Y2739884D01*
X11927274Y2739880D01*
X11936406Y2717833D01*
X11936407Y2717831D01*
X11936690Y2716998D01*
X11936835Y2716570D01*
X11937095Y2715264D01*
X11937182Y2713935D01*
Y2713935D01*
D01*
Y2702000D01*
Y2632000D01*
Y2620065D01*
X11937095Y2618736D01*
X11936835Y2617430D01*
X11936407Y2616169D01*
X11927272Y2594116D01*
X11926683Y2592922D01*
X11925943Y2591814D01*
X11925065Y2590813D01*
X11908189Y2573936D01*
X11908187Y2573934D01*
X11907653Y2573467D01*
X11907185Y2573057D01*
X11906445Y2572562D01*
X11906078Y2572316D01*
X11905473Y2572018D01*
X11904884Y2571727D01*
X11904882Y2571727D01*
X11882831Y2562593D01*
X11881570Y2562165D01*
X11880264Y2561905D01*
X11878935Y2561818D01*
X11702000D01*
X11700671Y2561905D01*
X11699365Y2562165D01*
X11698104Y2562593D01*
X11696909Y2563182D01*
X11695802Y2563922D01*
X11694800Y2564800D01*
X11693922Y2565802D01*
X11693182Y2566909D01*
X11692593Y2568104D01*
X11692165Y2569365D01*
X11691905Y2570671D01*
X11691818Y2572000D01*
Y2762000D01*
X11691905Y2763329D01*
X11692165Y2764635D01*
X11692593Y2765896D01*
X11693182Y2767091D01*
X11693922Y2768198D01*
X11694800Y2769200D01*
X11695802Y2770078D01*
X11696909Y2770818D01*
X11698104Y2771407D01*
X11699365Y2771835D01*
X11700671Y2772095D01*
X11702000Y2772182D01*
X11878935D01*
X11880264Y2772095D01*
D02*
G37*
D39*
X11219500Y2979000D02*
D03*
X11664500D02*
D03*
D40*
X9779000Y5737000D02*
D03*
X13081000Y6521000D02*
D03*
Y3921000D02*
D03*
Y3721000D02*
D03*
Y3521000D02*
D03*
Y3321000D02*
D03*
Y2921000D02*
D03*
Y3121000D02*
D03*
Y4121000D02*
D03*
Y4321000D02*
D03*
Y4521000D02*
D03*
Y4721000D02*
D03*
Y4921000D02*
D03*
Y5121000D02*
D03*
Y5321000D02*
D03*
Y5521000D02*
D03*
Y5721000D02*
D03*
Y5921000D02*
D03*
Y6121000D02*
D03*
Y6321000D02*
D03*
X9779000Y3937000D02*
D03*
Y3737000D02*
D03*
Y3537000D02*
D03*
Y3337000D02*
D03*
Y2937000D02*
D03*
Y3137000D02*
D03*
Y4137000D02*
D03*
Y4337000D02*
D03*
Y4537000D02*
D03*
Y4737000D02*
D03*
Y4937000D02*
D03*
Y5137000D02*
D03*
Y5337000D02*
D03*
Y5537000D02*
D03*
Y5937000D02*
D03*
Y6137000D02*
D03*
Y6337000D02*
D03*
Y6537000D02*
D03*
D41*
X7747000Y5207000D02*
D03*
Y4953000D02*
D03*
Y4699000D02*
D03*
Y5461000D02*
D03*
Y5715000D02*
D03*
D42*
Y4445000D02*
D03*
D43*
X13081000Y2721000D02*
D03*
X9779000Y2737000D02*
D03*
D44*
X11434000Y5565000D02*
D03*
X11294000D02*
D03*
X11154000D02*
D03*
Y5705000D02*
D03*
X11294000D02*
D03*
X11434000D02*
D03*
Y5845000D02*
D03*
X11294000D02*
D03*
X11154000D02*
D03*
X10350500Y6159500D02*
D03*
X12700000Y6667500D02*
D03*
X9017000Y5715000D02*
D03*
X8763000Y6667500D02*
D03*
X10795000Y6477000D02*
D03*
X9398000Y4191000D02*
D03*
X8318500Y4635500D02*
D03*
X8001000Y5143500D02*
D03*
X10795000Y4889500D02*
D03*
Y5080000D02*
D03*
D45*
X11859500Y2667000D02*
D03*
X11024500D02*
D03*
D46*
X11377000Y2947000D02*
D03*
X11442000D02*
D03*
X11507000D02*
D03*
X11312000D02*
D03*
X11572000D02*
D03*
D47*
X11557000Y2667000D02*
D03*
X11327000D02*
D03*
%TF.MD5,e0f49e29e609ff0de9f47cca2f8c38fd*%
M02*
