G04*
G04 #@! TF.GenerationSoftware,Altium Limited,Altium Designer,25.8.1 (18)*
G04*
G04 Layer_Physical_Order=1*
G04 Layer_Color=255*
%FSLAX44Y44*%
%MOMM*%
G71*
G04*
G04 #@! TF.SameCoordinates,F83B8B20-63E5-468B-AA92-8036A68B70BD*
G04*
G04*
G04 #@! TF.FilePolarity,Positive*
G04*
G01*
G75*
%ADD13C,0.2540*%
%ADD14R,1.3071X0.9061*%
%ADD15R,1.5000X0.9000*%
%ADD16R,1.5250X0.6500*%
%ADD17R,1.2000X1.2000*%
%ADD18R,1.4700X1.0200*%
%ADD19R,0.9000X0.9000*%
%ADD20R,0.9000X1.5000*%
%ADD33C,0.3810*%
%ADD34O,1.1500X1.0500*%
%ADD35C,1.4000*%
%ADD36C,1.5500*%
%ADD37R,1.5500X1.5500*%
G04:AMPARAMS|DCode=38|XSize=1.4mm|YSize=1.4mm|CornerRadius=0.35mm|HoleSize=0mm|Usage=FLASHONLY|Rotation=90.000|XOffset=0mm|YOffset=0mm|HoleType=Round|Shape=RoundedRectangle|*
%AMROUNDEDRECTD38*
21,1,1.4000,0.7000,0,0,90.0*
21,1,0.7000,1.4000,0,0,90.0*
1,1,0.7000,0.3500,0.3500*
1,1,0.7000,0.3500,-0.3500*
1,1,0.7000,-0.3500,-0.3500*
1,1,0.7000,-0.3500,0.3500*
%
%ADD38ROUNDEDRECTD38*%
%ADD39C,1.2700*%
D13*
X977900Y573700D02*
X980093Y575893D01*
X988643D01*
X955239Y551039D02*
X977900Y573700D01*
X825500Y551039D02*
X955239D01*
X958850Y488950D02*
Y546100D01*
X952500Y482600D02*
X958850Y488950D01*
Y546100D02*
X966450Y553700D01*
X939800Y419100D02*
Y444500D01*
X831850Y463550D02*
X847850D01*
X863600Y447800D01*
X847850Y463550D02*
X863600Y479300D01*
X824089Y514350D02*
X825500Y512939D01*
X800100Y514350D02*
X824089D01*
X901700Y571500D02*
Y588900D01*
X916411Y576439D02*
X939800D01*
X903950Y588900D02*
X916411Y576439D01*
X901700Y588900D02*
X903950D01*
X963900Y639700D02*
X977900Y653700D01*
X901700Y639700D02*
X963900D01*
X876300Y666750D02*
X888400D01*
X899450Y655700D01*
X901700D01*
X1293450Y666750D02*
X1308100Y652100D01*
X1270000Y666750D02*
X1293450D01*
X1017650Y615950D02*
X1035050D01*
X1016000Y614300D02*
X1017650Y615950D01*
X1056900Y647700D02*
X1079500D01*
X1016000Y630300D02*
X1043560D01*
X1045900Y627960D02*
X1049182D01*
X1043560Y630300D02*
X1045900Y627960D01*
X1049182D02*
X1050670Y626472D01*
Y625530D02*
X1053900Y622300D01*
X1050670Y625530D02*
Y626472D01*
X1053900Y622300D02*
X1056900D01*
X1047078Y608928D02*
X1056228D01*
X1003300Y603250D02*
X1041400D01*
X1056228Y608928D02*
X1056900Y609600D01*
X1041400Y603250D02*
X1047078Y608928D01*
X884045Y588900D02*
X901700D01*
X869695Y603250D02*
X884045Y588900D01*
X865320Y603250D02*
X869695D01*
X1149350Y468700D02*
X1150750Y470100D01*
X1149350Y430850D02*
Y468700D01*
Y430850D02*
X1308100Y272100D01*
X1162050Y468700D02*
X1163450Y470100D01*
X1162050Y438150D02*
Y468700D01*
Y438150D02*
X1308100Y292100D01*
X1174750Y468700D02*
X1176150Y470100D01*
X1174750Y445450D02*
Y468700D01*
Y445450D02*
X1308100Y312100D01*
X1187450Y468700D02*
X1188850Y470100D01*
X1187450Y452750D02*
Y468700D01*
Y452750D02*
X1308100Y332100D01*
X1201550Y458650D02*
Y470100D01*
Y458650D02*
X1308100Y352100D01*
X1214250Y467100D02*
Y470100D01*
Y467100D02*
X1308100Y373250D01*
Y372100D02*
Y373250D01*
X1231900Y482600D02*
X1244600D01*
X1263650Y463550D01*
Y457200D02*
Y463550D01*
Y457200D02*
X1276350Y444500D01*
Y423850D02*
Y444500D01*
Y423850D02*
X1308100Y392100D01*
X1231900Y495300D02*
X1244600D01*
X1276350Y463550D01*
Y457200D02*
Y463550D01*
Y457200D02*
X1289050Y444500D01*
Y431150D02*
Y444500D01*
Y431150D02*
X1308100Y412100D01*
X1231900Y508000D02*
X1244600D01*
X1282700Y469900D01*
Y463550D02*
Y469900D01*
Y463550D02*
X1295400Y450850D01*
Y444800D02*
Y450850D01*
Y444800D02*
X1308100Y432100D01*
X1231900Y520700D02*
X1244600D01*
X1295400Y469900D01*
Y464800D02*
Y469900D01*
Y464800D02*
X1308100Y452100D01*
X1231900Y533400D02*
X1246800D01*
X1308100Y472100D01*
X1231900Y546100D02*
X1254100D01*
X1308100Y492100D01*
Y512100D02*
Y514350D01*
X1231900Y558800D02*
X1263650D01*
X1308100Y514350D01*
X1231900Y571500D02*
X1268700D01*
X1308100Y532100D01*
X1231900Y584200D02*
X1276000D01*
X1308100Y552100D01*
X1231900Y596900D02*
X1283300D01*
X1308100Y572100D01*
X1231900Y609600D02*
X1290600D01*
X1308100Y592100D01*
X1231900Y622300D02*
X1289050D01*
X1297290Y614060D01*
X1306140D01*
X1308100Y612100D01*
X1291950Y632100D02*
X1308100D01*
X1289050Y635000D02*
X1291950Y632100D01*
X1231900Y635000D02*
X1289050D01*
X1304999Y652100D02*
X1308100D01*
X1300599Y647700D02*
X1304999Y652100D01*
X1231900Y647700D02*
X1300599D01*
X1138050Y414150D02*
Y470100D01*
X996950Y273050D02*
X1138050Y414150D01*
X978550Y273050D02*
X996950D01*
X977900Y273700D02*
X978550Y273050D01*
X1125350Y422604D02*
Y470100D01*
X995898Y293152D02*
X1125350Y422604D01*
X995350Y293700D02*
X995898Y293152D01*
X977900Y293700D02*
X995350D01*
X1111250Y468700D02*
X1112650Y470100D01*
X1111250Y431800D02*
Y468700D01*
X993150Y313700D02*
X1111250Y431800D01*
X977900Y313700D02*
X993150D01*
X1098550Y468700D02*
X1099950Y470100D01*
X1098550Y438150D02*
Y468700D01*
X994100Y333700D02*
X1098550Y438150D01*
X977900Y333700D02*
X994100D01*
X1085850Y468700D02*
X1087250Y470100D01*
X1085850Y444500D02*
Y468700D01*
X995050Y353700D02*
X1085850Y444500D01*
X977900Y353700D02*
X995050D01*
X1073150Y468700D02*
X1074550Y470100D01*
X1073150Y450850D02*
Y468700D01*
X996950Y374650D02*
X1073150Y450850D01*
X978850Y374650D02*
X996950D01*
X977900Y373700D02*
X978850Y374650D01*
X1053900Y508000D02*
X1056900D01*
X979600Y433700D02*
X1053900Y508000D01*
X977900Y433700D02*
X979600D01*
X1044900Y520700D02*
X1056900D01*
X977900Y453700D02*
X1044900Y520700D01*
X1037600Y533400D02*
X1056900D01*
X977900Y473700D02*
X1037600Y533400D01*
X1030188Y546100D02*
X1056900D01*
X1028700Y544612D02*
X1030188Y546100D01*
X1028700Y544500D02*
Y544612D01*
X977900Y493700D02*
X1028700Y544500D01*
X1023000Y558800D02*
X1056900D01*
X977900Y513700D02*
X1023000Y558800D01*
X1015700Y571500D02*
X1056900D01*
X977900Y533700D02*
X1015700Y571500D01*
X1008400Y584200D02*
X1056900D01*
X977900Y553700D02*
X1008400Y584200D01*
X1009650Y596900D02*
X1056900D01*
X988643Y575893D02*
X1009650Y596900D01*
X993750Y593700D02*
X1003300Y603250D01*
X977900Y593700D02*
X993750D01*
X1016000Y630300D02*
Y652639D01*
X1013750Y630300D02*
X1016000D01*
X997150Y613700D02*
X1013750Y630300D01*
X977900Y613700D02*
X997150D01*
X1053670Y638230D02*
X1056900Y635000D01*
X1039658Y638230D02*
X1053670D01*
X1035050Y642838D02*
X1039658Y638230D01*
X1035050Y642838D02*
Y660400D01*
X1028700Y666750D02*
X1035050Y660400D01*
X1017411Y666750D02*
X1028700D01*
X1016000Y668161D02*
X1017411Y666750D01*
X1004711Y668161D02*
X1016000D01*
X996950Y660400D02*
X1004711Y668161D01*
X996950Y641350D02*
Y660400D01*
X989300Y633700D02*
X996950Y641350D01*
X977900Y633700D02*
X989300D01*
X860300Y419100D02*
X863600Y415800D01*
X831850Y419100D02*
X860300D01*
X806450Y444500D02*
X831850Y419100D01*
X774700Y444500D02*
X806450D01*
X966450Y553700D02*
X977900D01*
X939800Y482600D02*
X952500D01*
X939800Y460022D02*
Y482600D01*
X937795Y498122D02*
X939800D01*
X918973Y479300D02*
X937795Y498122D01*
X901700Y479300D02*
X918973D01*
X901700Y447800D02*
Y479300D01*
X863600Y415800D02*
X901700D01*
X847850Y511300D02*
X863600D01*
X806450Y469900D02*
X847850Y511300D01*
X774700Y469900D02*
X806450D01*
X863600Y511300D02*
X901700D01*
X941539Y593700D02*
X977900D01*
X939800Y591961D02*
X941539Y593700D01*
X939800Y591961D02*
Y614539D01*
X915811Y630061D02*
X939800D01*
X914400Y628650D02*
X915811Y630061D01*
X865320Y628650D02*
X914400D01*
X899450Y604900D02*
X901700D01*
X888400Y615950D02*
X899450Y604900D01*
X865320Y615950D02*
X888400D01*
X900050Y641350D02*
X901700Y639700D01*
X865320Y641350D02*
X900050D01*
X825500Y528461D02*
Y551039D01*
X823495Y512939D02*
X825500D01*
X805856Y495300D02*
X823495Y512939D01*
X774700Y495300D02*
X805856D01*
X823495Y566561D02*
X825500D01*
X777634Y520700D02*
X823495Y566561D01*
X774700Y520700D02*
X777634D01*
X811080Y628650D02*
Y641350D01*
Y603250D02*
Y615950D01*
X800100Y603250D02*
X811080D01*
X793750Y596900D02*
X800100Y603250D01*
X793750Y565150D02*
Y596900D01*
X774700Y546100D02*
X793750Y565150D01*
X806705Y628650D02*
X811080D01*
X774700Y596645D02*
X806705Y628650D01*
X774700Y571500D02*
Y596645D01*
D14*
X825500Y566561D02*
D03*
Y551039D02*
D03*
Y528461D02*
D03*
Y512939D02*
D03*
X939800Y444500D02*
D03*
Y576439D02*
D03*
Y630061D02*
D03*
Y614539D02*
D03*
Y591961D02*
D03*
Y498122D02*
D03*
Y482600D02*
D03*
Y460022D02*
D03*
X1016000Y668161D02*
D03*
Y652639D02*
D03*
D15*
X1056900Y596900D02*
D03*
Y647700D02*
D03*
X1231900D02*
D03*
Y635000D02*
D03*
Y622300D02*
D03*
Y609600D02*
D03*
Y596900D02*
D03*
Y584200D02*
D03*
Y571500D02*
D03*
Y558800D02*
D03*
Y546100D02*
D03*
Y533400D02*
D03*
Y520700D02*
D03*
Y508000D02*
D03*
Y495300D02*
D03*
Y482600D02*
D03*
X1056900D02*
D03*
Y495300D02*
D03*
Y508000D02*
D03*
Y520700D02*
D03*
Y533400D02*
D03*
Y546100D02*
D03*
Y558800D02*
D03*
Y571500D02*
D03*
Y584200D02*
D03*
Y609600D02*
D03*
Y622300D02*
D03*
Y635000D02*
D03*
D16*
X865320Y603250D02*
D03*
Y641350D02*
D03*
Y628650D02*
D03*
Y615950D02*
D03*
X811080Y603250D02*
D03*
Y615950D02*
D03*
Y628650D02*
D03*
Y641350D02*
D03*
D17*
X863600Y447800D02*
D03*
Y479300D02*
D03*
X901700D02*
D03*
Y511300D02*
D03*
X863600D02*
D03*
X901700Y447800D02*
D03*
Y415800D02*
D03*
X863600D02*
D03*
D18*
X901700Y655700D02*
D03*
Y588900D02*
D03*
X1016000Y614300D02*
D03*
X901700Y604900D02*
D03*
Y639700D02*
D03*
X1016000Y630300D02*
D03*
D19*
X1129400Y584500D02*
D03*
X1143400D02*
D03*
Y570500D02*
D03*
Y556500D02*
D03*
X1129400D02*
D03*
X1115400D02*
D03*
Y570500D02*
D03*
Y584500D02*
D03*
X1129400Y570500D02*
D03*
D20*
X1214250Y470100D02*
D03*
X1201550D02*
D03*
X1188850D02*
D03*
X1176150D02*
D03*
X1163450D02*
D03*
X1150750D02*
D03*
X1138050D02*
D03*
X1125350D02*
D03*
X1112650D02*
D03*
X1099950D02*
D03*
X1087250D02*
D03*
X1074550D02*
D03*
D33*
X1059495Y497895D02*
X1069395D01*
X1079500Y508000D01*
X1056900Y495300D02*
X1059495Y497895D01*
X1056900Y482600D02*
X1059900D01*
X1064925Y487625D01*
X1078175D01*
X1079500Y488950D01*
D34*
X1121950Y297900D02*
D03*
X1166450D02*
D03*
D35*
X977900Y573700D02*
D03*
X1308100Y652100D02*
D03*
Y392100D02*
D03*
Y372100D02*
D03*
Y352100D02*
D03*
Y332100D02*
D03*
Y292100D02*
D03*
Y312100D02*
D03*
Y412100D02*
D03*
Y432100D02*
D03*
Y452100D02*
D03*
Y472100D02*
D03*
Y492100D02*
D03*
Y512100D02*
D03*
Y532100D02*
D03*
Y552100D02*
D03*
Y572100D02*
D03*
Y592100D02*
D03*
Y612100D02*
D03*
Y632100D02*
D03*
X977900Y393700D02*
D03*
Y373700D02*
D03*
Y353700D02*
D03*
Y333700D02*
D03*
Y293700D02*
D03*
Y313700D02*
D03*
Y413700D02*
D03*
Y433700D02*
D03*
Y453700D02*
D03*
Y473700D02*
D03*
Y493700D02*
D03*
Y513700D02*
D03*
Y533700D02*
D03*
Y553700D02*
D03*
Y593700D02*
D03*
Y613700D02*
D03*
Y633700D02*
D03*
Y653700D02*
D03*
D36*
X774700Y520700D02*
D03*
Y495300D02*
D03*
Y469900D02*
D03*
Y546100D02*
D03*
Y571500D02*
D03*
D37*
Y444500D02*
D03*
D38*
X1308100Y272100D02*
D03*
X977900Y273700D02*
D03*
D39*
X1143400Y556500D02*
D03*
X1129400D02*
D03*
X1115400D02*
D03*
Y570500D02*
D03*
X1129400D02*
D03*
X1143400D02*
D03*
Y584500D02*
D03*
X1129400D02*
D03*
X1115400D02*
D03*
X1035050Y615950D02*
D03*
X1270000Y666750D02*
D03*
X901700Y571500D02*
D03*
X876300Y666750D02*
D03*
X1079500Y647700D02*
D03*
X939800Y419100D02*
D03*
X831850Y463550D02*
D03*
X800100Y514350D02*
D03*
X1079500Y488950D02*
D03*
Y508000D02*
D03*
M02*
