G04*
G04 #@! TF.GenerationSoftware,Altium Limited,Altium Designer,25.8.1 (18)*
G04*
G04 Layer_Physical_Order=2*
G04 Layer_Color=16711680*
%FSLAX44Y44*%
%MOMM*%
G71*
G04*
G04 #@! TF.SameCoordinates,F83B8B20-63E5-468B-AA92-8036A68B70BD*
G04*
G04*
G04 #@! TF.FilePolarity,Positive*
G04*
G01*
G75*
%ADD13C,0.2540*%
%ADD33C,0.3810*%
%ADD34O,1.1500X1.0500*%
%ADD35C,1.4000*%
%ADD36C,1.5500*%
%ADD37R,1.5500X1.5500*%
G04:AMPARAMS|DCode=38|XSize=1.4mm|YSize=1.4mm|CornerRadius=0.35mm|HoleSize=0mm|Usage=FLASHONLY|Rotation=90.000|XOffset=0mm|YOffset=0mm|HoleType=Round|Shape=RoundedRectangle|*
%AMROUNDEDRECTD38*
21,1,1.4000,0.7000,0,0,90.0*
21,1,0.7000,1.4000,0,0,90.0*
1,1,0.7000,0.3500,0.3500*
1,1,0.7000,0.3500,-0.3500*
1,1,0.7000,-0.3500,-0.3500*
1,1,0.7000,-0.3500,0.3500*
%
%ADD38ROUNDEDRECTD38*%
%ADD39C,1.2700*%
%ADD40O,0.7500X1.3000*%
%ADD41R,0.4000X1.3500*%
%ADD42R,1.8000X1.9000*%
G36*
X1327150Y254000D02*
X1190397D01*
X1189892Y256540D01*
X1190625Y256843D01*
X1190818Y257037D01*
X1191071Y257141D01*
X1192759Y258829D01*
X1192863Y259082D01*
X1193056Y259275D01*
X1193970Y261480D01*
Y261754D01*
X1194075Y262006D01*
Y271394D01*
X1193970Y271646D01*
Y271919D01*
X1193056Y274125D01*
X1192863Y274318D01*
X1192758Y274571D01*
X1191071Y276259D01*
X1190818Y276363D01*
X1190625Y276556D01*
X1188419Y277470D01*
X1188146D01*
X1187894Y277575D01*
X1170200D01*
X1169780Y277401D01*
X1167240Y278503D01*
Y278740D01*
X1156970D01*
Y266700D01*
X1154430D01*
Y278740D01*
X1133970D01*
Y266700D01*
X1131430D01*
Y278740D01*
X1121160D01*
Y278503D01*
X1118620Y277401D01*
X1118200Y277575D01*
X1100507D01*
X1100254Y277470D01*
X1099980D01*
X1097775Y276556D01*
X1097582Y276363D01*
X1097329Y276259D01*
X1095641Y274571D01*
X1095537Y274318D01*
X1095343Y274125D01*
X1094430Y271919D01*
Y271646D01*
X1094325Y271394D01*
Y262006D01*
X1094430Y261754D01*
Y261480D01*
X1095343Y259275D01*
X1095537Y259082D01*
X1095641Y258829D01*
X1097329Y257141D01*
X1097582Y257037D01*
X1097775Y256843D01*
X1098508Y256540D01*
X1098002Y254000D01*
X762000D01*
Y493126D01*
X764540Y493460D01*
X765111Y491328D01*
X766466Y488982D01*
X768382Y487066D01*
X770728Y485711D01*
X773345Y485010D01*
X773430D01*
Y495300D01*
Y505590D01*
X773345D01*
X770728Y504889D01*
X768382Y503534D01*
X766466Y501618D01*
X765111Y499272D01*
X764540Y497140D01*
X762000Y497474D01*
Y711200D01*
X1327150D01*
Y254000D01*
D02*
G37*
G36*
X1190099Y275287D02*
X1191786Y273599D01*
X1192700Y271394D01*
Y270200D01*
Y263200D01*
Y262006D01*
X1191786Y259801D01*
X1190099Y258113D01*
X1187894Y257200D01*
X1170200D01*
Y276200D01*
X1187894D01*
X1190099Y275287D01*
D02*
G37*
G36*
X1118200Y257200D02*
X1100507D01*
X1098301Y258113D01*
X1096613Y259801D01*
X1095700Y262006D01*
Y263200D01*
Y270200D01*
Y271394D01*
X1096613Y273599D01*
X1098301Y275287D01*
X1100507Y276200D01*
X1118200D01*
Y257200D01*
D02*
G37*
%LPC*%
G36*
X1271270Y675613D02*
Y668020D01*
X1278863D01*
X1278284Y670181D01*
X1277114Y672209D01*
X1275459Y673864D01*
X1273431Y675034D01*
X1271270Y675613D01*
D02*
G37*
G36*
X1268730D02*
X1266569Y675034D01*
X1264541Y673864D01*
X1262886Y672209D01*
X1261716Y670181D01*
X1261137Y668020D01*
X1268730D01*
Y675613D01*
D02*
G37*
G36*
X877570D02*
Y668020D01*
X885163D01*
X884584Y670181D01*
X883414Y672209D01*
X881759Y673864D01*
X879731Y675034D01*
X877570Y675613D01*
D02*
G37*
G36*
X875030D02*
X872869Y675034D01*
X870841Y673864D01*
X869186Y672209D01*
X868016Y670181D01*
X867437Y668020D01*
X875030D01*
Y675613D01*
D02*
G37*
G36*
X1278863Y665480D02*
X1271270D01*
Y657887D01*
X1273431Y658466D01*
X1275459Y659636D01*
X1277114Y661291D01*
X1278284Y663319D01*
X1278863Y665480D01*
D02*
G37*
G36*
X1268730D02*
X1261137D01*
X1261716Y663319D01*
X1262886Y661291D01*
X1264541Y659636D01*
X1266569Y658466D01*
X1268730Y657887D01*
Y665480D01*
D02*
G37*
G36*
X885163D02*
X877570D01*
Y657887D01*
X879731Y658466D01*
X881759Y659636D01*
X883414Y661291D01*
X884584Y663319D01*
X885163Y665480D01*
D02*
G37*
G36*
X875030D02*
X867437D01*
X868016Y663319D01*
X869186Y661291D01*
X870841Y659636D01*
X872869Y658466D01*
X875030Y657887D01*
Y665480D01*
D02*
G37*
G36*
X1309370Y661636D02*
Y653370D01*
X1317636D01*
X1316990Y655782D01*
X1315734Y657958D01*
X1313958Y659734D01*
X1311782Y660990D01*
X1309370Y661636D01*
D02*
G37*
G36*
X1306830D02*
X1304418Y660990D01*
X1302242Y659734D01*
X1300466Y657958D01*
X1299210Y655782D01*
X1298564Y653370D01*
X1306830D01*
Y661636D01*
D02*
G37*
G36*
X1080770Y656563D02*
Y648970D01*
X1088363D01*
X1087784Y651131D01*
X1086614Y653159D01*
X1084959Y654814D01*
X1082931Y655984D01*
X1080770Y656563D01*
D02*
G37*
G36*
X1078230D02*
X1076069Y655984D01*
X1074041Y654814D01*
X1072386Y653159D01*
X1071216Y651131D01*
X1070637Y648970D01*
X1078230D01*
Y656563D01*
D02*
G37*
G36*
X978989Y661970D02*
X976811D01*
X974708Y661406D01*
X972822Y660318D01*
X971282Y658778D01*
X970194Y656892D01*
X969630Y654789D01*
Y652611D01*
X970194Y650508D01*
X971282Y648622D01*
X972822Y647082D01*
X974708Y645994D01*
X976811Y645430D01*
X978989D01*
X981092Y645994D01*
X982978Y647082D01*
X984518Y648622D01*
X985606Y650508D01*
X986170Y652611D01*
Y654789D01*
X985606Y656892D01*
X984518Y658778D01*
X982978Y660318D01*
X981092Y661406D01*
X978989Y661970D01*
D02*
G37*
G36*
X1088363Y646430D02*
X1080770D01*
Y638837D01*
X1082931Y639416D01*
X1084959Y640586D01*
X1086614Y642241D01*
X1087784Y644269D01*
X1088363Y646430D01*
D02*
G37*
G36*
X1078230D02*
X1070637D01*
X1071216Y644269D01*
X1072386Y642241D01*
X1074041Y640586D01*
X1076069Y639416D01*
X1078230Y638837D01*
Y646430D01*
D02*
G37*
G36*
X978989Y641970D02*
X976811D01*
X974708Y641406D01*
X972822Y640318D01*
X971282Y638778D01*
X970194Y636892D01*
X969630Y634789D01*
Y632611D01*
X970194Y630508D01*
X971282Y628622D01*
X972822Y627082D01*
X974708Y625994D01*
X976811Y625430D01*
X978989D01*
X981092Y625994D01*
X982978Y627082D01*
X984518Y628622D01*
X985606Y630508D01*
X986170Y632611D01*
Y634789D01*
X985606Y636892D01*
X984518Y638778D01*
X982978Y640318D01*
X981092Y641406D01*
X978989Y641970D01*
D02*
G37*
G36*
X1317636Y650830D02*
X1308100D01*
X1298564D01*
X1299210Y648418D01*
X1300466Y646242D01*
X1302242Y644466D01*
X1304418Y643210D01*
X1306107Y642757D01*
X1306107Y640128D01*
X1304908Y639806D01*
X1303022Y638718D01*
X1301482Y637178D01*
X1300394Y635292D01*
X1299830Y633189D01*
Y631011D01*
X1300394Y628908D01*
X1301482Y627022D01*
X1303022Y625482D01*
X1304908Y624394D01*
X1307011Y623830D01*
X1309189D01*
X1311292Y624394D01*
X1313178Y625482D01*
X1314718Y627022D01*
X1315806Y628908D01*
X1316370Y631011D01*
Y633189D01*
X1315806Y635292D01*
X1314718Y637178D01*
X1313178Y638718D01*
X1311292Y639806D01*
X1310093Y640128D01*
X1310093Y642757D01*
X1311782Y643210D01*
X1313958Y644466D01*
X1315734Y646242D01*
X1316990Y648418D01*
X1317636Y650830D01*
D02*
G37*
G36*
X1036320Y624813D02*
Y617220D01*
X1043913D01*
X1043334Y619381D01*
X1042164Y621409D01*
X1040509Y623064D01*
X1038481Y624234D01*
X1036320Y624813D01*
D02*
G37*
G36*
X1033780D02*
X1031619Y624234D01*
X1029591Y623064D01*
X1027936Y621409D01*
X1026766Y619381D01*
X1026187Y617220D01*
X1033780D01*
Y624813D01*
D02*
G37*
G36*
X1043913Y614680D02*
X1036320D01*
Y607087D01*
X1038481Y607666D01*
X1040509Y608836D01*
X1042164Y610491D01*
X1043334Y612519D01*
X1043913Y614680D01*
D02*
G37*
G36*
X1033780D02*
X1026187D01*
X1026766Y612519D01*
X1027936Y610491D01*
X1029591Y608836D01*
X1031619Y607666D01*
X1033780Y607087D01*
Y614680D01*
D02*
G37*
G36*
X978989Y621970D02*
X976811D01*
X974708Y621406D01*
X972822Y620318D01*
X971282Y618778D01*
X970194Y616892D01*
X969630Y614789D01*
Y612611D01*
X970194Y610508D01*
X971282Y608622D01*
X972822Y607082D01*
X974708Y605994D01*
X976811Y605430D01*
X978989D01*
X981092Y605994D01*
X982978Y607082D01*
X984518Y608622D01*
X985606Y610508D01*
X986170Y612611D01*
Y614789D01*
X985606Y616892D01*
X984518Y618778D01*
X982978Y620318D01*
X981092Y621406D01*
X978989Y621970D01*
D02*
G37*
G36*
X1309189Y620370D02*
X1307011D01*
X1304908Y619806D01*
X1303022Y618718D01*
X1301482Y617178D01*
X1300394Y615292D01*
X1299830Y613189D01*
Y611011D01*
X1300394Y608908D01*
X1301482Y607022D01*
X1303022Y605482D01*
X1304908Y604394D01*
X1307011Y603830D01*
X1309189D01*
X1311292Y604394D01*
X1313178Y605482D01*
X1314718Y607022D01*
X1315806Y608908D01*
X1316370Y611011D01*
Y613189D01*
X1315806Y615292D01*
X1314718Y617178D01*
X1313178Y618718D01*
X1311292Y619806D01*
X1309189Y620370D01*
D02*
G37*
G36*
X1142130Y593363D02*
X1139969Y592784D01*
X1137941Y591614D01*
X1136400Y590072D01*
X1134859Y591614D01*
X1132831Y592784D01*
X1130670Y593363D01*
Y584500D01*
X1128130D01*
Y593363D01*
X1125969Y592784D01*
X1123941Y591614D01*
X1122400Y590072D01*
X1120859Y591614D01*
X1118831Y592784D01*
X1116670Y593363D01*
Y584500D01*
X1115400D01*
Y583230D01*
X1106537D01*
X1107116Y581069D01*
X1108286Y579041D01*
X1109828Y577500D01*
X1108286Y575959D01*
X1107116Y573931D01*
X1106537Y571770D01*
X1115400D01*
Y569230D01*
X1106537D01*
X1107116Y567069D01*
X1108286Y565041D01*
X1109828Y563500D01*
X1108286Y561959D01*
X1107116Y559931D01*
X1106537Y557770D01*
X1115400D01*
Y556500D01*
X1116670D01*
Y547637D01*
X1118831Y548216D01*
X1120859Y549386D01*
X1122400Y550928D01*
X1123941Y549386D01*
X1125969Y548216D01*
X1128130Y547637D01*
Y556500D01*
X1130670D01*
Y547637D01*
X1132831Y548216D01*
X1134859Y549386D01*
X1136400Y550928D01*
X1137941Y549386D01*
X1139969Y548216D01*
X1142130Y547637D01*
Y556500D01*
X1143400D01*
Y557770D01*
X1152263D01*
X1151684Y559931D01*
X1150514Y561959D01*
X1148972Y563500D01*
X1150514Y565041D01*
X1151684Y567069D01*
X1152263Y569230D01*
X1143400D01*
Y571770D01*
X1152263D01*
X1151684Y573931D01*
X1150514Y575959D01*
X1148972Y577500D01*
X1150514Y579041D01*
X1151684Y581069D01*
X1152263Y583230D01*
X1143400D01*
Y584500D01*
X1142130D01*
Y593363D01*
D02*
G37*
G36*
X1144670D02*
Y585770D01*
X1152263D01*
X1151684Y587931D01*
X1150514Y589959D01*
X1148859Y591614D01*
X1146831Y592784D01*
X1144670Y593363D01*
D02*
G37*
G36*
X1114130D02*
X1111969Y592784D01*
X1109941Y591614D01*
X1108286Y589959D01*
X1107116Y587931D01*
X1106537Y585770D01*
X1114130D01*
Y593363D01*
D02*
G37*
G36*
X978989Y601970D02*
X976811D01*
X974708Y601406D01*
X972822Y600318D01*
X971282Y598778D01*
X970194Y596892D01*
X969630Y594789D01*
Y592611D01*
X970194Y590508D01*
X971282Y588622D01*
X972822Y587082D01*
X974708Y585994D01*
X976811Y585430D01*
X978989D01*
X981092Y585994D01*
X982978Y587082D01*
X984518Y588622D01*
X985606Y590508D01*
X986170Y592611D01*
Y594789D01*
X985606Y596892D01*
X984518Y598778D01*
X982978Y600318D01*
X981092Y601406D01*
X978989Y601970D01*
D02*
G37*
G36*
X1309189Y600370D02*
X1307011D01*
X1304908Y599806D01*
X1303022Y598718D01*
X1301482Y597178D01*
X1300394Y595292D01*
X1299830Y593189D01*
Y591011D01*
X1300394Y588908D01*
X1301482Y587022D01*
X1303022Y585482D01*
X1304908Y584394D01*
X1307011Y583830D01*
X1309189D01*
X1311292Y584394D01*
X1313178Y585482D01*
X1314718Y587022D01*
X1315806Y588908D01*
X1316370Y591011D01*
Y593189D01*
X1315806Y595292D01*
X1314718Y597178D01*
X1313178Y598718D01*
X1311292Y599806D01*
X1309189Y600370D01*
D02*
G37*
G36*
X902970Y580363D02*
Y572770D01*
X910563D01*
X909984Y574931D01*
X908814Y576959D01*
X907159Y578614D01*
X905131Y579784D01*
X902970Y580363D01*
D02*
G37*
G36*
X900430D02*
X898269Y579784D01*
X896241Y578614D01*
X894586Y576959D01*
X893416Y574931D01*
X892837Y572770D01*
X900430D01*
Y580363D01*
D02*
G37*
G36*
X978989Y581970D02*
X976811D01*
X974708Y581406D01*
X972822Y580318D01*
X971282Y578778D01*
X970194Y576892D01*
X969630Y574789D01*
Y572611D01*
X970194Y570508D01*
X971282Y568622D01*
X972822Y567082D01*
X974708Y565994D01*
X976811Y565430D01*
X978989D01*
X981092Y565994D01*
X982978Y567082D01*
X984518Y568622D01*
X985606Y570508D01*
X986170Y572611D01*
Y574789D01*
X985606Y576892D01*
X984518Y578778D01*
X982978Y580318D01*
X981092Y581406D01*
X978989Y581970D01*
D02*
G37*
G36*
X1309189Y580370D02*
X1307011D01*
X1304908Y579806D01*
X1303022Y578718D01*
X1301482Y577178D01*
X1300394Y575292D01*
X1299830Y573189D01*
Y571011D01*
X1300394Y568908D01*
X1301482Y567022D01*
X1303022Y565482D01*
X1304908Y564394D01*
X1307011Y563830D01*
X1309189D01*
X1311292Y564394D01*
X1313178Y565482D01*
X1314718Y567022D01*
X1315806Y568908D01*
X1316370Y571011D01*
Y573189D01*
X1315806Y575292D01*
X1314718Y577178D01*
X1313178Y578718D01*
X1311292Y579806D01*
X1309189Y580370D01*
D02*
G37*
G36*
X910563Y570230D02*
X902970D01*
Y562637D01*
X905131Y563216D01*
X907159Y564386D01*
X908814Y566041D01*
X909984Y568069D01*
X910563Y570230D01*
D02*
G37*
G36*
X900430D02*
X892837D01*
X893416Y568069D01*
X894586Y566041D01*
X896241Y564386D01*
X898269Y563216D01*
X900430Y562637D01*
Y570230D01*
D02*
G37*
G36*
X775888Y580520D02*
X773512D01*
X771218Y579905D01*
X769162Y578718D01*
X767482Y577038D01*
X766295Y574982D01*
X765680Y572687D01*
Y570312D01*
X766295Y568018D01*
X767482Y565962D01*
X769162Y564282D01*
X771218Y563095D01*
X773512Y562480D01*
X775888D01*
X778182Y563095D01*
X780238Y564282D01*
X781918Y565962D01*
X783105Y568018D01*
X783720Y570312D01*
Y572687D01*
X783105Y574982D01*
X781918Y577038D01*
X780238Y578718D01*
X778182Y579905D01*
X775888Y580520D01*
D02*
G37*
G36*
X1152263Y555230D02*
X1144670D01*
Y547637D01*
X1146831Y548216D01*
X1148859Y549386D01*
X1150514Y551041D01*
X1151684Y553069D01*
X1152263Y555230D01*
D02*
G37*
G36*
X1114130D02*
X1106537D01*
X1107116Y553069D01*
X1108286Y551041D01*
X1109941Y549386D01*
X1111969Y548216D01*
X1114130Y547637D01*
Y555230D01*
D02*
G37*
G36*
X978989Y561970D02*
X976811D01*
X974708Y561406D01*
X972822Y560318D01*
X971282Y558778D01*
X970194Y556892D01*
X969630Y554789D01*
Y552611D01*
X970194Y550508D01*
X971282Y548622D01*
X972822Y547082D01*
X974708Y545994D01*
X976811Y545430D01*
X978989D01*
X981092Y545994D01*
X982978Y547082D01*
X984518Y548622D01*
X985606Y550508D01*
X986170Y552611D01*
Y554789D01*
X985606Y556892D01*
X984518Y558778D01*
X982978Y560318D01*
X981092Y561406D01*
X978989Y561970D01*
D02*
G37*
G36*
X1309189Y560370D02*
X1307011D01*
X1304908Y559806D01*
X1303022Y558718D01*
X1301482Y557178D01*
X1300394Y555292D01*
X1299830Y553189D01*
Y551011D01*
X1300394Y548908D01*
X1301482Y547022D01*
X1303022Y545482D01*
X1304908Y544394D01*
X1307011Y543830D01*
X1309189D01*
X1311292Y544394D01*
X1313178Y545482D01*
X1314718Y547022D01*
X1315806Y548908D01*
X1316370Y551011D01*
Y553189D01*
X1315806Y555292D01*
X1314718Y557178D01*
X1313178Y558718D01*
X1311292Y559806D01*
X1309189Y560370D01*
D02*
G37*
G36*
X775888Y555120D02*
X773512D01*
X771218Y554505D01*
X769162Y553318D01*
X767482Y551638D01*
X766295Y549582D01*
X765680Y547287D01*
Y544912D01*
X766295Y542618D01*
X767482Y540562D01*
X769162Y538882D01*
X771218Y537695D01*
X773512Y537080D01*
X775888D01*
X778182Y537695D01*
X780238Y538882D01*
X781918Y540562D01*
X783105Y542618D01*
X783720Y544912D01*
Y547287D01*
X783105Y549582D01*
X781918Y551638D01*
X780238Y553318D01*
X778182Y554505D01*
X775888Y555120D01*
D02*
G37*
G36*
X978989Y541970D02*
X976811D01*
X974708Y541406D01*
X972822Y540318D01*
X971282Y538778D01*
X970194Y536892D01*
X969630Y534789D01*
Y532611D01*
X970194Y530508D01*
X971282Y528622D01*
X972822Y527082D01*
X974708Y525994D01*
X976811Y525430D01*
X978989D01*
X981092Y525994D01*
X982978Y527082D01*
X984518Y528622D01*
X985606Y530508D01*
X986170Y532611D01*
Y534789D01*
X985606Y536892D01*
X984518Y538778D01*
X982978Y540318D01*
X981092Y541406D01*
X978989Y541970D01*
D02*
G37*
G36*
X1309189Y540370D02*
X1307011D01*
X1304908Y539806D01*
X1303022Y538718D01*
X1301482Y537178D01*
X1300394Y535292D01*
X1299830Y533189D01*
Y531011D01*
X1300394Y528908D01*
X1301482Y527022D01*
X1303022Y525482D01*
X1304908Y524394D01*
X1307011Y523830D01*
X1309189D01*
X1311292Y524394D01*
X1313178Y525482D01*
X1314718Y527022D01*
X1315806Y528908D01*
X1316370Y531011D01*
Y533189D01*
X1315806Y535292D01*
X1314718Y537178D01*
X1313178Y538718D01*
X1311292Y539806D01*
X1309189Y540370D01*
D02*
G37*
G36*
X801370Y523213D02*
Y515620D01*
X808963D01*
X808384Y517781D01*
X807214Y519809D01*
X805559Y521464D01*
X803531Y522634D01*
X801370Y523213D01*
D02*
G37*
G36*
X798830D02*
X796669Y522634D01*
X794641Y521464D01*
X792986Y519809D01*
X791816Y517781D01*
X791237Y515620D01*
X798830D01*
Y523213D01*
D02*
G37*
G36*
X775888Y529720D02*
X773512D01*
X771218Y529105D01*
X769162Y527918D01*
X767482Y526238D01*
X766295Y524182D01*
X765680Y521888D01*
Y519512D01*
X766295Y517218D01*
X767482Y515162D01*
X769162Y513482D01*
X771218Y512295D01*
X773512Y511680D01*
X775888D01*
X778182Y512295D01*
X780238Y513482D01*
X781918Y515162D01*
X783105Y517218D01*
X783720Y519512D01*
Y521888D01*
X783105Y524182D01*
X781918Y526238D01*
X780238Y527918D01*
X778182Y529105D01*
X775888Y529720D01*
D02*
G37*
G36*
X808963Y513080D02*
X801370D01*
Y505487D01*
X803531Y506066D01*
X805559Y507236D01*
X807214Y508891D01*
X808384Y510919D01*
X808963Y513080D01*
D02*
G37*
G36*
X798830D02*
X791237D01*
X791816Y510919D01*
X792986Y508891D01*
X794641Y507236D01*
X796669Y506066D01*
X798830Y505487D01*
Y513080D01*
D02*
G37*
G36*
X978989Y521970D02*
X976811D01*
X974708Y521406D01*
X972822Y520318D01*
X971282Y518778D01*
X970194Y516892D01*
X969630Y514789D01*
Y512611D01*
X970194Y510508D01*
X971282Y508622D01*
X972822Y507082D01*
X974708Y505994D01*
X976811Y505430D01*
X978989D01*
X981092Y505994D01*
X982978Y507082D01*
X984518Y508622D01*
X985606Y510508D01*
X986170Y512611D01*
Y514789D01*
X985606Y516892D01*
X984518Y518778D01*
X982978Y520318D01*
X981092Y521406D01*
X978989Y521970D01*
D02*
G37*
G36*
X1309189Y520370D02*
X1307011D01*
X1304908Y519806D01*
X1303022Y518718D01*
X1301482Y517178D01*
X1300394Y515292D01*
X1299830Y513189D01*
Y511011D01*
X1300394Y508908D01*
X1301482Y507022D01*
X1303022Y505482D01*
X1304908Y504394D01*
X1307011Y503830D01*
X1309189D01*
X1311292Y504394D01*
X1313178Y505482D01*
X1314718Y507022D01*
X1315806Y508908D01*
X1316370Y511011D01*
Y513189D01*
X1315806Y515292D01*
X1314718Y517178D01*
X1313178Y518718D01*
X1311292Y519806D01*
X1309189Y520370D01*
D02*
G37*
G36*
X776055Y505590D02*
X775970D01*
Y496570D01*
X784990D01*
Y496655D01*
X784289Y499272D01*
X782934Y501618D01*
X781018Y503534D01*
X778672Y504889D01*
X776055Y505590D01*
D02*
G37*
G36*
X1080503Y515620D02*
X1078497D01*
X1076559Y515101D01*
X1074821Y514098D01*
X1073402Y512679D01*
X1072399Y510941D01*
X1071880Y509003D01*
Y506997D01*
X1072399Y505059D01*
X1073402Y503321D01*
X1074821Y501903D01*
X1076559Y500899D01*
X1078497Y500380D01*
X1080503D01*
X1082369Y500880D01*
X1083119Y500130D01*
X1083620Y498475D01*
X1083119Y496820D01*
X1082369Y496070D01*
X1080503Y496570D01*
X1078497D01*
X1076559Y496051D01*
X1074821Y495047D01*
X1073402Y493629D01*
X1072399Y491891D01*
X1071880Y489953D01*
Y487947D01*
X1072399Y486009D01*
X1073402Y484271D01*
X1074821Y482853D01*
X1076559Y481849D01*
X1078497Y481330D01*
X1080503D01*
X1082441Y481849D01*
X1084179Y482853D01*
X1085598Y484271D01*
X1086601Y486009D01*
X1087120Y487947D01*
Y489343D01*
X1088686Y490302D01*
X1089558Y490497D01*
X1141038Y439017D01*
Y302720D01*
X1135740D01*
Y303990D01*
X1132470D01*
Y294700D01*
Y285410D01*
X1135740D01*
Y286680D01*
X1160470D01*
Y289328D01*
X1163010Y290686D01*
X1163916Y290310D01*
X1165180Y290144D01*
Y297900D01*
Y305656D01*
X1163916Y305490D01*
X1162021Y304704D01*
X1160394Y303456D01*
X1159829Y302720D01*
X1153862D01*
Y442988D01*
X1153616Y444227D01*
X1152914Y445277D01*
X1094252Y503939D01*
X1093202Y504641D01*
X1091963Y504887D01*
X1089133D01*
X1087120Y506997D01*
Y509003D01*
X1086601Y510941D01*
X1085598Y512679D01*
X1084179Y514098D01*
X1082441Y515101D01*
X1080503Y515620D01*
D02*
G37*
G36*
X978989Y501970D02*
X976811D01*
X974708Y501406D01*
X972822Y500318D01*
X971282Y498778D01*
X970194Y496892D01*
X969630Y494789D01*
Y492611D01*
X970194Y490508D01*
X971282Y488622D01*
X972822Y487082D01*
X974708Y485994D01*
X976811Y485430D01*
X978989D01*
X981092Y485994D01*
X982978Y487082D01*
X984518Y488622D01*
X985606Y490508D01*
X986170Y492611D01*
Y494789D01*
X985606Y496892D01*
X984518Y498778D01*
X982978Y500318D01*
X981092Y501406D01*
X978989Y501970D01*
D02*
G37*
G36*
X784990Y494030D02*
X775970D01*
Y485010D01*
X776055D01*
X778672Y485711D01*
X781018Y487066D01*
X782934Y488982D01*
X784289Y491328D01*
X784990Y493945D01*
Y494030D01*
D02*
G37*
G36*
X1309189Y500370D02*
X1307011D01*
X1304908Y499806D01*
X1303022Y498718D01*
X1301482Y497178D01*
X1300394Y495292D01*
X1299830Y493189D01*
Y491011D01*
X1300394Y488908D01*
X1301482Y487022D01*
X1303022Y485482D01*
X1304908Y484394D01*
X1307011Y483830D01*
X1309189D01*
X1311292Y484394D01*
X1313178Y485482D01*
X1314718Y487022D01*
X1315806Y488908D01*
X1316370Y491011D01*
Y493189D01*
X1315806Y495292D01*
X1314718Y497178D01*
X1313178Y498718D01*
X1311292Y499806D01*
X1309189Y500370D01*
D02*
G37*
G36*
X978989Y481970D02*
X976811D01*
X974708Y481406D01*
X972822Y480318D01*
X971282Y478778D01*
X970194Y476892D01*
X969630Y474789D01*
Y472611D01*
X970194Y470508D01*
X971282Y468622D01*
X972822Y467082D01*
X974708Y465994D01*
X976811Y465430D01*
X978989D01*
X981092Y465994D01*
X982978Y467082D01*
X984518Y468622D01*
X985606Y470508D01*
X986170Y472611D01*
Y474789D01*
X985606Y476892D01*
X984518Y478778D01*
X982978Y480318D01*
X981092Y481406D01*
X978989Y481970D01*
D02*
G37*
G36*
X833120Y472413D02*
Y464820D01*
X840713D01*
X840134Y466981D01*
X838964Y469009D01*
X837309Y470664D01*
X835281Y471834D01*
X833120Y472413D01*
D02*
G37*
G36*
X830580D02*
X828419Y471834D01*
X826391Y470664D01*
X824736Y469009D01*
X823566Y466981D01*
X822987Y464820D01*
X830580D01*
Y472413D01*
D02*
G37*
G36*
X1309189Y480370D02*
X1307011D01*
X1304908Y479806D01*
X1303022Y478718D01*
X1301482Y477178D01*
X1300394Y475292D01*
X1299830Y473189D01*
Y471011D01*
X1300394Y468908D01*
X1301482Y467022D01*
X1303022Y465482D01*
X1304908Y464394D01*
X1307011Y463830D01*
X1309189D01*
X1311292Y464394D01*
X1313178Y465482D01*
X1314718Y467022D01*
X1315806Y468908D01*
X1316370Y471011D01*
Y473189D01*
X1315806Y475292D01*
X1314718Y477178D01*
X1313178Y478718D01*
X1311292Y479806D01*
X1309189Y480370D01*
D02*
G37*
G36*
X775888Y478920D02*
X773512D01*
X771218Y478305D01*
X769162Y477118D01*
X767482Y475438D01*
X766295Y473382D01*
X765680Y471087D01*
Y468713D01*
X766295Y466418D01*
X767482Y464362D01*
X769162Y462682D01*
X771218Y461495D01*
X773512Y460880D01*
X775888D01*
X778182Y461495D01*
X780238Y462682D01*
X781918Y464362D01*
X783105Y466418D01*
X783720Y468713D01*
Y471087D01*
X783105Y473382D01*
X781918Y475438D01*
X780238Y477118D01*
X778182Y478305D01*
X775888Y478920D01*
D02*
G37*
G36*
X840713Y462280D02*
X833120D01*
Y454687D01*
X835281Y455266D01*
X837309Y456436D01*
X838964Y458091D01*
X840134Y460119D01*
X840713Y462280D01*
D02*
G37*
G36*
X830580D02*
X822987D01*
X823566Y460119D01*
X824736Y458091D01*
X826391Y456436D01*
X828419Y455266D01*
X830580Y454687D01*
Y462280D01*
D02*
G37*
G36*
X978989Y461970D02*
X976811D01*
X974708Y461406D01*
X972822Y460318D01*
X971282Y458778D01*
X970194Y456892D01*
X969630Y454789D01*
Y452611D01*
X970194Y450508D01*
X971282Y448622D01*
X972822Y447082D01*
X974708Y445994D01*
X976811Y445430D01*
X978989D01*
X981092Y445994D01*
X982978Y447082D01*
X984518Y448622D01*
X985606Y450508D01*
X986170Y452611D01*
Y454789D01*
X985606Y456892D01*
X984518Y458778D01*
X982978Y460318D01*
X981092Y461406D01*
X978989Y461970D01*
D02*
G37*
G36*
X1309189Y460370D02*
X1307011D01*
X1304908Y459806D01*
X1303022Y458718D01*
X1301482Y457178D01*
X1300394Y455292D01*
X1299830Y453189D01*
Y451011D01*
X1300394Y448908D01*
X1301482Y447022D01*
X1303022Y445482D01*
X1304908Y444394D01*
X1307011Y443830D01*
X1309189D01*
X1311292Y444394D01*
X1313178Y445482D01*
X1314718Y447022D01*
X1315806Y448908D01*
X1316370Y451011D01*
Y453189D01*
X1315806Y455292D01*
X1314718Y457178D01*
X1313178Y458718D01*
X1311292Y459806D01*
X1309189Y460370D01*
D02*
G37*
G36*
X783720Y453520D02*
X765680D01*
Y435480D01*
X783720D01*
Y453520D01*
D02*
G37*
G36*
X978989Y441970D02*
X976811D01*
X974708Y441406D01*
X972822Y440318D01*
X971282Y438778D01*
X970194Y436892D01*
X969630Y434789D01*
Y432611D01*
X970194Y430508D01*
X971282Y428622D01*
X972822Y427082D01*
X974708Y425994D01*
X976811Y425430D01*
X978989D01*
X981092Y425994D01*
X982978Y427082D01*
X984518Y428622D01*
X985606Y430508D01*
X986170Y432611D01*
Y434789D01*
X985606Y436892D01*
X984518Y438778D01*
X982978Y440318D01*
X981092Y441406D01*
X978989Y441970D01*
D02*
G37*
G36*
X1309189Y440370D02*
X1307011D01*
X1304908Y439806D01*
X1303022Y438718D01*
X1301482Y437178D01*
X1300394Y435292D01*
X1299830Y433189D01*
Y431011D01*
X1300394Y428908D01*
X1301482Y427022D01*
X1303022Y425482D01*
X1304908Y424394D01*
X1307011Y423830D01*
X1309189D01*
X1311292Y424394D01*
X1313178Y425482D01*
X1314718Y427022D01*
X1315806Y428908D01*
X1316370Y431011D01*
Y433189D01*
X1315806Y435292D01*
X1314718Y437178D01*
X1313178Y438718D01*
X1311292Y439806D01*
X1309189Y440370D01*
D02*
G37*
G36*
X941070Y427963D02*
Y420370D01*
X948663D01*
X948084Y422531D01*
X946914Y424559D01*
X945259Y426214D01*
X943231Y427384D01*
X941070Y427963D01*
D02*
G37*
G36*
X938530D02*
X936369Y427384D01*
X934341Y426214D01*
X932686Y424559D01*
X931516Y422531D01*
X930937Y420370D01*
X938530D01*
Y427963D01*
D02*
G37*
G36*
X948663Y417830D02*
X941070D01*
Y410237D01*
X943231Y410816D01*
X945259Y411986D01*
X946914Y413641D01*
X948084Y415669D01*
X948663Y417830D01*
D02*
G37*
G36*
X938530D02*
X930937D01*
X931516Y415669D01*
X932686Y413641D01*
X934341Y411986D01*
X936369Y410816D01*
X938530Y410237D01*
Y417830D01*
D02*
G37*
G36*
X978989Y421970D02*
X976811D01*
X974708Y421406D01*
X972822Y420318D01*
X971282Y418778D01*
X970194Y416892D01*
X969630Y414789D01*
Y412611D01*
X970194Y410508D01*
X971282Y408622D01*
X972822Y407082D01*
X974708Y405994D01*
X976811Y405430D01*
X978989D01*
X981092Y405994D01*
X982978Y407082D01*
X984518Y408622D01*
X985606Y410508D01*
X986170Y412611D01*
Y414789D01*
X985606Y416892D01*
X984518Y418778D01*
X982978Y420318D01*
X981092Y421406D01*
X978989Y421970D01*
D02*
G37*
G36*
X1309189Y420370D02*
X1307011D01*
X1304908Y419806D01*
X1303022Y418718D01*
X1301482Y417178D01*
X1300394Y415292D01*
X1299830Y413189D01*
Y411011D01*
X1300394Y408908D01*
X1301482Y407022D01*
X1303022Y405482D01*
X1304908Y404394D01*
X1307011Y403830D01*
X1309189D01*
X1311292Y404394D01*
X1313178Y405482D01*
X1314718Y407022D01*
X1315806Y408908D01*
X1316370Y411011D01*
Y413189D01*
X1315806Y415292D01*
X1314718Y417178D01*
X1313178Y418718D01*
X1311292Y419806D01*
X1309189Y420370D01*
D02*
G37*
G36*
X978989Y401970D02*
X976811D01*
X974708Y401406D01*
X972822Y400318D01*
X971282Y398778D01*
X970194Y396892D01*
X969630Y394789D01*
Y392611D01*
X970194Y390508D01*
X971282Y388622D01*
X972822Y387082D01*
X974708Y385994D01*
X976811Y385430D01*
X978989D01*
X981092Y385994D01*
X982978Y387082D01*
X984518Y388622D01*
X985606Y390508D01*
X986170Y392611D01*
Y394789D01*
X985606Y396892D01*
X984518Y398778D01*
X982978Y400318D01*
X981092Y401406D01*
X978989Y401970D01*
D02*
G37*
G36*
X1309189Y400370D02*
X1307011D01*
X1304908Y399806D01*
X1303022Y398718D01*
X1301482Y397178D01*
X1300394Y395292D01*
X1299830Y393189D01*
Y391011D01*
X1300394Y388908D01*
X1301482Y387022D01*
X1303022Y385482D01*
X1304908Y384394D01*
X1307011Y383830D01*
X1309189D01*
X1311292Y384394D01*
X1313178Y385482D01*
X1314718Y387022D01*
X1315806Y388908D01*
X1316370Y391011D01*
Y393189D01*
X1315806Y395292D01*
X1314718Y397178D01*
X1313178Y398718D01*
X1311292Y399806D01*
X1309189Y400370D01*
D02*
G37*
G36*
X978989Y381970D02*
X976811D01*
X974708Y381406D01*
X972822Y380318D01*
X971282Y378778D01*
X970194Y376892D01*
X969630Y374789D01*
Y372611D01*
X970194Y370508D01*
X971282Y368622D01*
X972822Y367082D01*
X974708Y365994D01*
X976811Y365430D01*
X978989D01*
X981092Y365994D01*
X982978Y367082D01*
X984518Y368622D01*
X985606Y370508D01*
X986170Y372611D01*
Y374789D01*
X985606Y376892D01*
X984518Y378778D01*
X982978Y380318D01*
X981092Y381406D01*
X978989Y381970D01*
D02*
G37*
G36*
X1309189Y380370D02*
X1307011D01*
X1304908Y379806D01*
X1303022Y378718D01*
X1301482Y377178D01*
X1300394Y375292D01*
X1299830Y373189D01*
Y371011D01*
X1300394Y368908D01*
X1301482Y367022D01*
X1303022Y365482D01*
X1304908Y364394D01*
X1307011Y363830D01*
X1309189D01*
X1311292Y364394D01*
X1313178Y365482D01*
X1314718Y367022D01*
X1315806Y368908D01*
X1316370Y371011D01*
Y373189D01*
X1315806Y375292D01*
X1314718Y377178D01*
X1313178Y378718D01*
X1311292Y379806D01*
X1309189Y380370D01*
D02*
G37*
G36*
X978989Y361970D02*
X976811D01*
X974708Y361406D01*
X972822Y360318D01*
X971282Y358778D01*
X970194Y356892D01*
X969630Y354789D01*
Y352611D01*
X970194Y350508D01*
X971282Y348622D01*
X972822Y347082D01*
X974708Y345994D01*
X976811Y345430D01*
X978989D01*
X981092Y345994D01*
X982978Y347082D01*
X984518Y348622D01*
X985606Y350508D01*
X986170Y352611D01*
Y354789D01*
X985606Y356892D01*
X984518Y358778D01*
X982978Y360318D01*
X981092Y361406D01*
X978989Y361970D01*
D02*
G37*
G36*
X1309189Y360370D02*
X1307011D01*
X1304908Y359806D01*
X1303022Y358718D01*
X1301482Y357178D01*
X1300394Y355292D01*
X1299830Y353189D01*
Y351011D01*
X1300394Y348908D01*
X1301482Y347022D01*
X1303022Y345482D01*
X1304908Y344394D01*
X1307011Y343830D01*
X1309189D01*
X1311292Y344394D01*
X1313178Y345482D01*
X1314718Y347022D01*
X1315806Y348908D01*
X1316370Y351011D01*
Y353189D01*
X1315806Y355292D01*
X1314718Y357178D01*
X1313178Y358718D01*
X1311292Y359806D01*
X1309189Y360370D01*
D02*
G37*
G36*
X978989Y341970D02*
X976811D01*
X974708Y341406D01*
X972822Y340318D01*
X971282Y338778D01*
X970194Y336892D01*
X969630Y334789D01*
Y332611D01*
X970194Y330508D01*
X971282Y328622D01*
X972822Y327082D01*
X974708Y325994D01*
X976811Y325430D01*
X978989D01*
X981092Y325994D01*
X982978Y327082D01*
X984518Y328622D01*
X985606Y330508D01*
X986170Y332611D01*
Y334789D01*
X985606Y336892D01*
X984518Y338778D01*
X982978Y340318D01*
X981092Y341406D01*
X978989Y341970D01*
D02*
G37*
G36*
X1309189Y340370D02*
X1307011D01*
X1304908Y339806D01*
X1303022Y338718D01*
X1301482Y337178D01*
X1300394Y335292D01*
X1299830Y333189D01*
Y331011D01*
X1300394Y328908D01*
X1301482Y327022D01*
X1303022Y325482D01*
X1304908Y324394D01*
X1307011Y323830D01*
X1309189D01*
X1311292Y324394D01*
X1313178Y325482D01*
X1314718Y327022D01*
X1315806Y328908D01*
X1316370Y331011D01*
Y333189D01*
X1315806Y335292D01*
X1314718Y337178D01*
X1313178Y338718D01*
X1311292Y339806D01*
X1309189Y340370D01*
D02*
G37*
G36*
X978989Y321970D02*
X976811D01*
X974708Y321406D01*
X972822Y320318D01*
X971282Y318778D01*
X970194Y316892D01*
X969630Y314789D01*
Y312611D01*
X970194Y310508D01*
X971282Y308622D01*
X972822Y307082D01*
X974708Y305994D01*
X976811Y305430D01*
X978989D01*
X981092Y305994D01*
X982978Y307082D01*
X984518Y308622D01*
X985606Y310508D01*
X986170Y312611D01*
Y314789D01*
X985606Y316892D01*
X984518Y318778D01*
X982978Y320318D01*
X981092Y321406D01*
X978989Y321970D01*
D02*
G37*
G36*
X1309189Y320370D02*
X1307011D01*
X1304908Y319806D01*
X1303022Y318718D01*
X1301482Y317178D01*
X1300394Y315292D01*
X1299830Y313189D01*
Y311011D01*
X1300394Y308908D01*
X1301482Y307022D01*
X1303022Y305482D01*
X1304908Y304394D01*
X1307011Y303830D01*
X1309189D01*
X1311292Y304394D01*
X1313178Y305482D01*
X1314718Y307022D01*
X1315806Y308908D01*
X1316370Y311011D01*
Y313189D01*
X1315806Y315292D01*
X1314718Y317178D01*
X1313178Y318718D01*
X1311292Y319806D01*
X1309189Y320370D01*
D02*
G37*
G36*
X1167720Y305656D02*
Y299170D01*
X1174640D01*
X1174539Y299934D01*
X1173755Y301829D01*
X1172506Y303456D01*
X1170879Y304704D01*
X1168984Y305490D01*
X1167720Y305656D01*
D02*
G37*
G36*
X1120680D02*
X1119416Y305490D01*
X1117521Y304704D01*
X1115894Y303456D01*
X1114645Y301829D01*
X1113860Y299934D01*
X1113760Y299170D01*
X1120680D01*
Y305656D01*
D02*
G37*
G36*
X1174640Y296630D02*
X1167720D01*
Y290144D01*
X1168984Y290310D01*
X1170879Y291096D01*
X1172506Y292344D01*
X1173755Y293971D01*
X1174539Y295866D01*
X1174640Y296630D01*
D02*
G37*
G36*
X1120680D02*
X1113760D01*
X1113860Y295866D01*
X1114645Y293971D01*
X1115894Y292344D01*
X1117521Y291096D01*
X1119416Y290310D01*
X1120680Y290144D01*
Y296630D01*
D02*
G37*
G36*
X978989Y301970D02*
X976811D01*
X974708Y301406D01*
X972822Y300318D01*
X971282Y298778D01*
X970194Y296892D01*
X969630Y294789D01*
Y292611D01*
X970194Y290508D01*
X971282Y288622D01*
X972822Y287082D01*
X974708Y285994D01*
X976811Y285430D01*
X978989D01*
X981092Y285994D01*
X982978Y287082D01*
X984518Y288622D01*
X985606Y290508D01*
X986170Y292611D01*
Y294789D01*
X985606Y296892D01*
X984518Y298778D01*
X982978Y300318D01*
X981092Y301406D01*
X978989Y301970D01*
D02*
G37*
G36*
X1123220Y305656D02*
Y297900D01*
Y290144D01*
X1124120Y290263D01*
X1124839Y290009D01*
X1126660Y288463D01*
Y285410D01*
X1129930D01*
Y294700D01*
Y303990D01*
X1127310D01*
X1126379Y304704D01*
X1124484Y305490D01*
X1123220Y305656D01*
D02*
G37*
G36*
X1309189Y300370D02*
X1307011D01*
X1304908Y299806D01*
X1303022Y298718D01*
X1301482Y297178D01*
X1300394Y295292D01*
X1299830Y293189D01*
Y291011D01*
X1300394Y288908D01*
X1301482Y287022D01*
X1303022Y285482D01*
X1304908Y284394D01*
X1307011Y283830D01*
X1309189D01*
X1311292Y284394D01*
X1313178Y285482D01*
X1314718Y287022D01*
X1315806Y288908D01*
X1316370Y291011D01*
Y293189D01*
X1315806Y295292D01*
X1314718Y297178D01*
X1313178Y298718D01*
X1311292Y299806D01*
X1309189Y300370D01*
D02*
G37*
G36*
X981400Y282063D02*
X974400D01*
X972539Y281693D01*
X970961Y280639D01*
X969907Y279061D01*
X969537Y277200D01*
Y270200D01*
X969907Y268339D01*
X970961Y266761D01*
X972539Y265707D01*
X974400Y265336D01*
X981400D01*
X983261Y265707D01*
X984839Y266761D01*
X985893Y268339D01*
X986263Y270200D01*
Y277200D01*
X985893Y279061D01*
X984839Y280639D01*
X983261Y281693D01*
X981400Y282063D01*
D02*
G37*
G36*
X1311600Y280463D02*
X1304600D01*
X1302739Y280093D01*
X1301161Y279039D01*
X1300107Y277461D01*
X1299737Y275600D01*
Y268600D01*
X1300107Y266739D01*
X1301161Y265161D01*
X1302739Y264107D01*
X1304600Y263737D01*
X1311600D01*
X1313461Y264107D01*
X1315039Y265161D01*
X1316093Y266739D01*
X1316463Y268600D01*
Y275600D01*
X1316093Y277461D01*
X1315039Y279039D01*
X1313461Y280093D01*
X1311600Y280463D01*
D02*
G37*
%LPD*%
D13*
X1155700Y266700D02*
X1185950D01*
X1102450D02*
X1132700D01*
D33*
X1079827Y508000D02*
X1086177Y501650D01*
X1150625Y294775D02*
Y442988D01*
X1091963Y501650D02*
X1150625Y442988D01*
X1079500Y508000D02*
X1079827D01*
X1086177Y501650D02*
X1091963D01*
X1150625Y294775D02*
X1150700Y294700D01*
X1086177Y495300D02*
X1089333D01*
X1079827Y488950D02*
X1086177Y495300D01*
X1144200Y294700D02*
X1144275Y294775D01*
Y440358D01*
X1089333Y495300D02*
X1144275Y440358D01*
X1079500Y488950D02*
X1079827D01*
D34*
X1121950Y297900D02*
D03*
X1166450D02*
D03*
D35*
X977900Y573700D02*
D03*
X1308100Y652100D02*
D03*
Y392100D02*
D03*
Y372100D02*
D03*
Y352100D02*
D03*
Y332100D02*
D03*
Y292100D02*
D03*
Y312100D02*
D03*
Y412100D02*
D03*
Y432100D02*
D03*
Y452100D02*
D03*
Y472100D02*
D03*
Y492100D02*
D03*
Y512100D02*
D03*
Y532100D02*
D03*
Y552100D02*
D03*
Y572100D02*
D03*
Y592100D02*
D03*
Y612100D02*
D03*
Y632100D02*
D03*
X977900Y393700D02*
D03*
Y373700D02*
D03*
Y353700D02*
D03*
Y333700D02*
D03*
Y293700D02*
D03*
Y313700D02*
D03*
Y413700D02*
D03*
Y433700D02*
D03*
Y453700D02*
D03*
Y473700D02*
D03*
Y493700D02*
D03*
Y513700D02*
D03*
Y533700D02*
D03*
Y553700D02*
D03*
Y593700D02*
D03*
Y613700D02*
D03*
Y633700D02*
D03*
Y653700D02*
D03*
D36*
X774700Y520700D02*
D03*
Y495300D02*
D03*
Y469900D02*
D03*
Y546100D02*
D03*
Y571500D02*
D03*
D37*
Y444500D02*
D03*
D38*
X1308100Y272100D02*
D03*
X977900Y273700D02*
D03*
D39*
X1143400Y556500D02*
D03*
X1129400D02*
D03*
X1115400D02*
D03*
Y570500D02*
D03*
X1129400D02*
D03*
X1143400D02*
D03*
Y584500D02*
D03*
X1129400D02*
D03*
X1115400D02*
D03*
X1035050Y615950D02*
D03*
X1270000Y666750D02*
D03*
X901700Y571500D02*
D03*
X876300Y666750D02*
D03*
X1079500Y647700D02*
D03*
X939800Y419100D02*
D03*
X831850Y463550D02*
D03*
X800100Y514350D02*
D03*
X1079500Y488950D02*
D03*
Y508000D02*
D03*
D40*
X1185950Y266700D02*
D03*
X1102450D02*
D03*
D41*
X1137700Y294700D02*
D03*
X1144200D02*
D03*
X1150700D02*
D03*
X1131200D02*
D03*
X1157200D02*
D03*
D42*
X1155700Y266700D02*
D03*
X1132700D02*
D03*
M02*
