%TF.GenerationSoftware,Altium Limited,Altium Designer,25.8.1 (18)*%
G04 Layer_Physical_Order=1*
G04 Layer_Color=255*
%FSLAX45Y45*%
%MOMM*%
%TF.SameCoordinates,D030ABF7-A58C-4A07-9546-7BFCEFCD6942*%
%TF.FilePolarity,Positive*%
%TF.FileFunction,Copper,L1,Top,Signal*%
%TF.Part,Single*%
G01*
G75*
%TA.AperFunction,SMDPad,CuDef*%
%ADD10R,1.30707X0.90606*%
%TA.AperFunction,ConnectorPad*%
%ADD11R,1.50000X0.90000*%
%TA.AperFunction,SMDPad,CuDef*%
%ADD12R,1.52500X0.65000*%
%ADD13R,1.20000X1.20000*%
%ADD14R,1.47000X1.02000*%
%TA.AperFunction,BGAPad,CuDef*%
%ADD15R,0.90000X0.90000*%
%TA.AperFunction,ConnectorPad*%
%ADD16R,0.90000X1.50000*%
%TA.AperFunction,Conductor*%
%ADD17C,0.25400*%
%ADD18C,0.38100*%
%TA.AperFunction,ComponentPad*%
%ADD19O,1.15000X1.05000*%
%ADD20C,1.40000*%
%ADD21C,1.55000*%
%ADD22R,1.55000X1.55000*%
G04:AMPARAMS|DCode=23|XSize=1.4mm|YSize=1.4mm|CornerRadius=0.35mm|HoleSize=0mm|Usage=FLASHONLY|Rotation=90.000|XOffset=0mm|YOffset=0mm|HoleType=Round|Shape=RoundedRectangle|*
%AMROUNDEDRECTD23*
21,1,1.40000,0.70000,0,0,90.0*
21,1,0.70000,1.40000,0,0,90.0*
1,1,0.70000,0.35000,0.35000*
1,1,0.70000,0.35000,-0.35000*
1,1,0.70000,-0.35000,-0.35000*
1,1,0.70000,-0.35000,0.35000*
%
%ADD23ROUNDEDRECTD23*%
%TA.AperFunction,ViaPad*%
%ADD24C,1.27000*%
D10*
X8255000Y5665608D02*
D03*
Y5510392D02*
D03*
Y5284608D02*
D03*
Y5129392D02*
D03*
X9398000Y4445000D02*
D03*
Y5764392D02*
D03*
Y6300608D02*
D03*
Y6145392D02*
D03*
Y5919608D02*
D03*
Y4981216D02*
D03*
Y4826000D02*
D03*
Y4600216D02*
D03*
X10160000Y6681608D02*
D03*
Y6526392D02*
D03*
D11*
X10569000Y5969000D02*
D03*
Y6477000D02*
D03*
X12319000D02*
D03*
Y6350000D02*
D03*
Y6223000D02*
D03*
Y6096000D02*
D03*
Y5969000D02*
D03*
Y5842000D02*
D03*
Y5715000D02*
D03*
Y5588000D02*
D03*
Y5461000D02*
D03*
Y5334000D02*
D03*
Y5207000D02*
D03*
Y5080000D02*
D03*
Y4953000D02*
D03*
Y4826000D02*
D03*
X10569000D02*
D03*
Y4953000D02*
D03*
Y5080000D02*
D03*
Y5207000D02*
D03*
Y5334000D02*
D03*
Y5461000D02*
D03*
Y5588000D02*
D03*
Y5715000D02*
D03*
Y5842000D02*
D03*
Y6096000D02*
D03*
Y6223000D02*
D03*
Y6350000D02*
D03*
D12*
X8653200Y6032500D02*
D03*
Y6413500D02*
D03*
Y6286500D02*
D03*
Y6159500D02*
D03*
X8110800Y6032500D02*
D03*
Y6159500D02*
D03*
Y6286500D02*
D03*
Y6413500D02*
D03*
D13*
X8636000Y4478000D02*
D03*
Y4793000D02*
D03*
X9017000D02*
D03*
Y5113000D02*
D03*
X8636000D02*
D03*
X9017000Y4478000D02*
D03*
Y4158000D02*
D03*
X8636000D02*
D03*
D14*
X9017000Y6557000D02*
D03*
Y5889000D02*
D03*
X10160000Y6143000D02*
D03*
X9017000Y6049000D02*
D03*
Y6397000D02*
D03*
X10160000Y6303000D02*
D03*
D15*
X11294000Y5845000D02*
D03*
X11434000D02*
D03*
Y5705000D02*
D03*
Y5565000D02*
D03*
X11294000D02*
D03*
X11154000D02*
D03*
Y5705000D02*
D03*
Y5845000D02*
D03*
X11294000Y5705000D02*
D03*
D16*
X12142500Y4701000D02*
D03*
X12015500D02*
D03*
X11888500D02*
D03*
X11761500D02*
D03*
X11634500D02*
D03*
X11507500D02*
D03*
X11380500D02*
D03*
X11253500D02*
D03*
X11126500D02*
D03*
X10999500D02*
D03*
X10872500D02*
D03*
X10745500D02*
D03*
D17*
X9779000Y5737000D02*
X9800928Y5758928D01*
X9886428D01*
X9552392Y5510392D02*
X9779000Y5737000D01*
X8255000Y5510392D02*
X9552392D01*
X9588500Y4889500D02*
Y5461000D01*
X9525000Y4826000D02*
X9588500Y4889500D01*
Y5461000D02*
X9664500Y5537000D01*
X9398000Y4191000D02*
Y4445000D01*
X8318500Y4635500D02*
X8478500D01*
X8636000Y4478000D01*
X8478500Y4635500D02*
X8636000Y4793000D01*
X8240892Y5143500D02*
X8255000Y5129392D01*
X8001000Y5143500D02*
X8240892D01*
X9017000Y5715000D02*
Y5889000D01*
X9164108Y5764392D02*
X9398000D01*
X9039500Y5889000D02*
X9164108Y5764392D01*
X9017000Y5889000D02*
X9039500D01*
X9639000Y6397000D02*
X9779000Y6537000D01*
X9017000Y6397000D02*
X9639000D01*
X8763000Y6667500D02*
X8884000D01*
X8994500Y6557000D01*
X9017000D01*
X12934500Y6667500D02*
X13081000Y6521000D01*
X12700000Y6667500D02*
X12934500D01*
X10176500Y6159500D02*
X10350500D01*
X10160000Y6143000D02*
X10176500Y6159500D01*
X10569000Y6477000D02*
X10795000D01*
X10160000Y6303000D02*
X10435600D01*
X10459000Y6279600D02*
X10491821D01*
X10435600Y6303000D02*
X10459000Y6279600D01*
X10491821D02*
X10506700Y6264721D01*
Y6255300D02*
X10539000Y6223000D01*
X10506700Y6255300D02*
Y6264721D01*
X10539000Y6223000D02*
X10569000D01*
X10470779Y6089279D02*
X10562279D01*
X10033000Y6032500D02*
X10414000D01*
X10562279Y6089279D02*
X10569000Y6096000D01*
X10414000Y6032500D02*
X10470779Y6089279D01*
X8840450Y5889000D02*
X9017000D01*
X8696950Y6032500D02*
X8840450Y5889000D01*
X8653200Y6032500D02*
X8696950D01*
X11493500Y4687000D02*
X11507500Y4701000D01*
X11493500Y4308500D02*
Y4687000D01*
Y4308500D02*
X13081000Y2721000D01*
X11620500Y4687000D02*
X11634500Y4701000D01*
X11620500Y4381500D02*
Y4687000D01*
Y4381500D02*
X13081000Y2921000D01*
X11747500Y4687000D02*
X11761500Y4701000D01*
X11747500Y4454500D02*
Y4687000D01*
Y4454500D02*
X13081000Y3121000D01*
X11874500Y4687000D02*
X11888500Y4701000D01*
X11874500Y4527500D02*
Y4687000D01*
Y4527500D02*
X13081000Y3321000D01*
X12015500Y4586500D02*
Y4701000D01*
Y4586500D02*
X13081000Y3521000D01*
X12142500Y4671000D02*
Y4701000D01*
Y4671000D02*
X13081000Y3732500D01*
Y3721000D02*
Y3732500D01*
X12319000Y4826000D02*
X12446000D01*
X12636500Y4635500D01*
Y4572000D02*
Y4635500D01*
Y4572000D02*
X12763500Y4445000D01*
Y4238500D02*
Y4445000D01*
Y4238500D02*
X13081000Y3921000D01*
X12319000Y4953000D02*
X12446000D01*
X12763500Y4635500D01*
Y4572000D02*
Y4635500D01*
Y4572000D02*
X12890500Y4445000D01*
Y4311500D02*
Y4445000D01*
Y4311500D02*
X13081000Y4121000D01*
X12319000Y5080000D02*
X12446000D01*
X12827000Y4699000D01*
Y4635500D02*
Y4699000D01*
Y4635500D02*
X12953999Y4508500D01*
Y4448000D02*
Y4508500D01*
Y4448000D02*
X13081000Y4321000D01*
X12319000Y5207000D02*
X12446000D01*
X12953999Y4699000D01*
Y4648000D02*
Y4699000D01*
Y4648000D02*
X13081000Y4521000D01*
X12319000Y5334000D02*
X12468000D01*
X13081000Y4721000D01*
X12319000Y5461000D02*
X12541000D01*
X13081000Y4921000D01*
Y5121000D02*
Y5143500D01*
X12319000Y5588000D02*
X12636500D01*
X13081000Y5143500D01*
X12319000Y5715000D02*
X12687000D01*
X13081000Y5321000D01*
X12319000Y5842000D02*
X12760000D01*
X13081000Y5521000D01*
X12319000Y5969000D02*
X12833000D01*
X13081000Y5721000D01*
X12319000Y6096000D02*
X12906000D01*
X13081000Y5921000D01*
X12319000Y6223000D02*
X12890500D01*
X12972900Y6140600D01*
X13061400D01*
X13081000Y6121000D01*
X12919501Y6321000D02*
X13081000D01*
X12890500Y6350000D02*
X12919501Y6321000D01*
X12319000Y6350000D02*
X12890500D01*
X13049989Y6521000D02*
X13081000D01*
X13005989Y6477000D02*
X13049989Y6521000D01*
X12319000Y6477000D02*
X13005989D01*
X11380500Y4141500D02*
Y4701000D01*
X9969500Y2730500D02*
X11380500Y4141500D01*
X9785500Y2730500D02*
X9969500D01*
X9779000Y2737000D02*
X9785500Y2730500D01*
X11253500Y4226042D02*
Y4701000D01*
X9958979Y2931521D02*
X11253500Y4226042D01*
X9953500Y2937000D02*
X9958979Y2931521D01*
X9779000Y2937000D02*
X9953500D01*
X11112500Y4687000D02*
X11126500Y4701000D01*
X11112500Y4318000D02*
Y4687000D01*
X9931500Y3137000D02*
X11112500Y4318000D01*
X9779000Y3137000D02*
X9931500D01*
X10985500Y4687000D02*
X10999500Y4701000D01*
X10985500Y4381500D02*
Y4687000D01*
X9941000Y3337000D02*
X10985500Y4381500D01*
X9779000Y3337000D02*
X9941000D01*
X10858500Y4687000D02*
X10872500Y4701000D01*
X10858500Y4445000D02*
Y4687000D01*
X9950500Y3537000D02*
X10858500Y4445000D01*
X9779000Y3537000D02*
X9950500D01*
X10731500Y4687000D02*
X10745500Y4701000D01*
X10731500Y4508500D02*
Y4687000D01*
X9969500Y3746500D02*
X10731500Y4508500D01*
X9788500Y3746500D02*
X9969500D01*
X9779000Y3737000D02*
X9788500Y3746500D01*
X10539000Y5080000D02*
X10569000D01*
X9796000Y4337000D02*
X10539000Y5080000D01*
X9779000Y4337000D02*
X9796000D01*
X10449000Y5207000D02*
X10569000D01*
X9779000Y4537000D02*
X10449000Y5207000D01*
X10376000Y5334000D02*
X10569000D01*
X9779000Y4737000D02*
X10376000Y5334000D01*
X10301879Y5461000D02*
X10569000D01*
X10287000Y5446121D02*
X10301879Y5461000D01*
X10287000Y5445000D02*
Y5446121D01*
X9779000Y4937000D02*
X10287000Y5445000D01*
X10230000Y5588000D02*
X10569000D01*
X9779000Y5137000D02*
X10230000Y5588000D01*
X10157000Y5715000D02*
X10569000D01*
X9779000Y5337000D02*
X10157000Y5715000D01*
X10084000Y5842000D02*
X10569000D01*
X9779000Y5537000D02*
X10084000Y5842000D01*
X10096500Y5969000D02*
X10569000D01*
X9886428Y5758928D02*
X10096500Y5969000D01*
X9937500Y5937000D02*
X10033000Y6032500D01*
X9779000Y5937000D02*
X9937500D01*
X10160000Y6303000D02*
Y6526392D01*
X10137500Y6303000D02*
X10160000D01*
X9971500Y6137000D02*
X10137500Y6303000D01*
X9779000Y6137000D02*
X9971500D01*
X10536700Y6382300D02*
X10569000Y6350000D01*
X10396579Y6382300D02*
X10536700D01*
X10350500Y6428379D02*
X10396579Y6382300D01*
X10350500Y6428379D02*
Y6604000D01*
X10287000Y6667500D02*
X10350500Y6604000D01*
X10174108Y6667500D02*
X10287000D01*
X10160000Y6681608D02*
X10174108Y6667500D01*
X10047108Y6681608D02*
X10160000D01*
X9969500Y6604000D02*
X10047108Y6681608D01*
X9969500Y6413500D02*
Y6604000D01*
X9893000Y6337000D02*
X9969500Y6413500D01*
X9779000Y6337000D02*
X9893000D01*
X8603000Y4191000D02*
X8636000Y4158000D01*
X8318500Y4191000D02*
X8603000D01*
X8064500Y4445000D02*
X8318500Y4191000D01*
X7747000Y4445000D02*
X8064500D01*
X9664500Y5537000D02*
X9779000D01*
X9398000Y4826000D02*
X9525000D01*
X9398000Y4600216D02*
Y4826000D01*
X9377949Y4981216D02*
X9398000D01*
X9189733Y4793000D02*
X9377949Y4981216D01*
X9017000Y4793000D02*
X9189733D01*
X9017000Y4478000D02*
Y4793000D01*
X8636000Y4158000D02*
X9017000D01*
X8478500Y5113000D02*
X8636000D01*
X8064500Y4699000D02*
X8478500Y5113000D01*
X7747000Y4699000D02*
X8064500D01*
X8636000Y5113000D02*
X9017000D01*
X9415392Y5937000D02*
X9779000D01*
X9398000Y5919608D02*
X9415392Y5937000D01*
X9398000Y5919608D02*
Y6145392D01*
X9158108Y6300608D02*
X9398000D01*
X9144000Y6286500D02*
X9158108Y6300608D01*
X8653200Y6286500D02*
X9144000D01*
X8994500Y6049000D02*
X9017000D01*
X8884000Y6159500D02*
X8994500Y6049000D01*
X8653200Y6159500D02*
X8884000D01*
X9000500Y6413500D02*
X9017000Y6397000D01*
X8653200Y6413500D02*
X9000500D01*
X8255000Y5284608D02*
Y5510392D01*
X8234949Y5129392D02*
X8255000D01*
X8058557Y4953000D02*
X8234949Y5129392D01*
X7747000Y4953000D02*
X8058557D01*
X8234949Y5665608D02*
X8255000D01*
X7776341Y5207000D02*
X8234949Y5665608D01*
X7747000Y5207000D02*
X7776341D01*
X8110800Y6286500D02*
Y6413500D01*
Y6032500D02*
Y6159500D01*
X8001000Y6032500D02*
X8110800D01*
X7937500Y5969000D02*
X8001000Y6032500D01*
X7937500Y5651500D02*
Y5969000D01*
X7747000Y5461000D02*
X7937500Y5651500D01*
X8067050Y6286500D02*
X8110800D01*
X7747000Y5966450D02*
X8067050Y6286500D01*
X7747000Y5715000D02*
Y5966450D01*
D18*
X10594950Y4978950D02*
X10693950D01*
X10795000Y5080000D01*
X10569000Y4953000D02*
X10594950Y4978950D01*
X10569000Y4826000D02*
X10599000D01*
X10649250Y4876250D01*
X10781750D01*
X10795000Y4889500D01*
D19*
X11219500Y2979000D02*
D03*
X11664500D02*
D03*
D20*
X9779000Y5737000D02*
D03*
X13081000Y6521000D02*
D03*
Y3921000D02*
D03*
Y3721000D02*
D03*
Y3521000D02*
D03*
Y3321000D02*
D03*
Y2921000D02*
D03*
Y3121000D02*
D03*
Y4121000D02*
D03*
Y4321000D02*
D03*
Y4521000D02*
D03*
Y4721000D02*
D03*
Y4921000D02*
D03*
Y5121000D02*
D03*
Y5321000D02*
D03*
Y5521000D02*
D03*
Y5721000D02*
D03*
Y5921000D02*
D03*
Y6121000D02*
D03*
Y6321000D02*
D03*
X9779000Y3937000D02*
D03*
Y3737000D02*
D03*
Y3537000D02*
D03*
Y3337000D02*
D03*
Y2937000D02*
D03*
Y3137000D02*
D03*
Y4137000D02*
D03*
Y4337000D02*
D03*
Y4537000D02*
D03*
Y4737000D02*
D03*
Y4937000D02*
D03*
Y5137000D02*
D03*
Y5337000D02*
D03*
Y5537000D02*
D03*
Y5937000D02*
D03*
Y6137000D02*
D03*
Y6337000D02*
D03*
Y6537000D02*
D03*
D21*
X7747000Y5207000D02*
D03*
Y4953000D02*
D03*
Y4699000D02*
D03*
Y5461000D02*
D03*
Y5715000D02*
D03*
D22*
Y4445000D02*
D03*
D23*
X13081000Y2721000D02*
D03*
X9779000Y2737000D02*
D03*
D24*
X11434000Y5565000D02*
D03*
X11294000D02*
D03*
X11154000D02*
D03*
Y5705000D02*
D03*
X11294000D02*
D03*
X11434000D02*
D03*
Y5845000D02*
D03*
X11294000D02*
D03*
X11154000D02*
D03*
X10350500Y6159500D02*
D03*
X12700000Y6667500D02*
D03*
X9017000Y5715000D02*
D03*
X8763000Y6667500D02*
D03*
X10795000Y6477000D02*
D03*
X9398000Y4191000D02*
D03*
X8318500Y4635500D02*
D03*
X8001000Y5143500D02*
D03*
X10795000Y4889500D02*
D03*
Y5080000D02*
D03*
%TF.MD5,630d235b96567866faeaaa4a8c83abda*%
M02*
