%TF.GenerationSoftware,Altium Limited,Altium Designer,25.8.1 (18)*%
G04 Layer_Physical_Order=2*
G04 Layer_Color=16711680*
%FSLAX45Y45*%
%MOMM*%
%TF.SameCoordinates,D030ABF7-A58C-4A07-9546-7BFCEFCD6942*%
%TF.FilePolarity,Positive*%
%TF.FileFunction,Copper,L2,Bot,Signal*%
%TF.Part,Single*%
G01*
G75*
%TA.AperFunction,Conductor*%
%ADD17C,0.25400*%
%ADD18C,0.38100*%
%TA.AperFunction,ComponentPad*%
%ADD19O,1.15000X1.05000*%
%ADD20C,1.40000*%
%ADD21C,1.55000*%
%ADD22R,1.55000X1.55000*%
G04:AMPARAMS|DCode=23|XSize=1.4mm|YSize=1.4mm|CornerRadius=0.35mm|HoleSize=0mm|Usage=FLASHONLY|Rotation=90.000|XOffset=0mm|YOffset=0mm|HoleType=Round|Shape=RoundedRectangle|*
%AMROUNDEDRECTD23*
21,1,1.40000,0.70000,0,0,90.0*
21,1,0.70000,1.40000,0,0,90.0*
1,1,0.70000,0.35000,0.35000*
1,1,0.70000,0.35000,-0.35000*
1,1,0.70000,-0.35000,-0.35000*
1,1,0.70000,-0.35000,0.35000*
%
%ADD23ROUNDEDRECTD23*%
%TA.AperFunction,ViaPad*%
%ADD24C,1.27000*%
%TA.AperFunction,ConnectorPad*%
%ADD25O,0.75000X1.30000*%
%ADD26R,0.40000X1.35000*%
%ADD27R,1.80000X1.90000*%
G36*
X13271500Y2540000D02*
X11903975D01*
X11898922Y2565400D01*
X11906248Y2568434D01*
X11908181Y2570368D01*
X11910707Y2571414D01*
X11927586Y2588292D01*
X11928632Y2590819D01*
X11930565Y2592752D01*
X11939700Y2614804D01*
Y2617539D01*
X11940747Y2620065D01*
Y2713935D01*
X11939700Y2716461D01*
Y2719195D01*
X11930565Y2741248D01*
X11928632Y2743181D01*
X11927585Y2745707D01*
X11910707Y2762586D01*
X11908181Y2763632D01*
X11906248Y2765565D01*
X11884195Y2774700D01*
X11881461D01*
X11878935Y2775747D01*
X11702000D01*
X11697800Y2774007D01*
X11672400Y2785027D01*
Y2787400D01*
X11569700D01*
Y2667000D01*
X11544300D01*
Y2787400D01*
X11339700D01*
Y2667000D01*
X11314300D01*
Y2787400D01*
X11211600D01*
Y2785027D01*
X11186200Y2774007D01*
X11182000Y2775747D01*
X11005065D01*
X11002539Y2774700D01*
X10999804D01*
X10977752Y2765565D01*
X10975818Y2763632D01*
X10973292Y2762586D01*
X10956414Y2745707D01*
X10955367Y2743181D01*
X10953434Y2741248D01*
X10944300Y2719195D01*
Y2716461D01*
X10943253Y2713935D01*
Y2620065D01*
X10944300Y2617539D01*
Y2614804D01*
X10953434Y2592752D01*
X10955368Y2590818D01*
X10956414Y2588292D01*
X10973292Y2571414D01*
X10975819Y2570367D01*
X10977752Y2568434D01*
X10985077Y2565400D01*
X10980025Y2540000D01*
X7620000D01*
Y4931257D01*
X7645400Y4934601D01*
X7651112Y4913282D01*
X7664660Y4889818D01*
X7683818Y4870660D01*
X7707282Y4857112D01*
X7733453Y4850100D01*
X7734300D01*
Y4953000D01*
Y5055900D01*
X7733453D01*
X7707282Y5048888D01*
X7683818Y5035340D01*
X7664660Y5016182D01*
X7651112Y4992718D01*
X7645400Y4971399D01*
X7620000Y4974743D01*
Y7112000D01*
X13271500D01*
Y2540000D01*
D02*
G37*
G36*
X11900987Y2752865D02*
X11917865Y2735987D01*
X11927000Y2713935D01*
Y2702000D01*
Y2632000D01*
Y2620065D01*
X11917865Y2598013D01*
X11900987Y2581134D01*
X11878935Y2572000D01*
X11702000D01*
Y2762000D01*
X11878935D01*
X11900987Y2752865D01*
D02*
G37*
G36*
X11182000Y2572000D02*
X11005065D01*
X10983013Y2581134D01*
X10966134Y2598013D01*
X10957000Y2620065D01*
Y2632000D01*
Y2702000D01*
Y2713935D01*
X10966134Y2735987D01*
X10983013Y2752865D01*
X11005065Y2762000D01*
X11182000D01*
Y2572000D01*
D02*
G37*
%LPC*%
G36*
X12712700Y6756133D02*
Y6680200D01*
X12788633D01*
X12782842Y6701814D01*
X12771138Y6722086D01*
X12754586Y6738638D01*
X12734314Y6750342D01*
X12712700Y6756133D01*
D02*
G37*
G36*
X12687300D02*
X12665686Y6750342D01*
X12645414Y6738638D01*
X12628862Y6722086D01*
X12617158Y6701814D01*
X12611367Y6680200D01*
X12687300D01*
Y6756133D01*
D02*
G37*
G36*
X8775700D02*
Y6680200D01*
X8851633D01*
X8845842Y6701814D01*
X8834138Y6722086D01*
X8817586Y6738638D01*
X8797314Y6750342D01*
X8775700Y6756133D01*
D02*
G37*
G36*
X8750300D02*
X8728686Y6750342D01*
X8708414Y6738638D01*
X8691862Y6722086D01*
X8680158Y6701814D01*
X8674367Y6680200D01*
X8750300D01*
Y6756133D01*
D02*
G37*
G36*
X12788633Y6654800D02*
X12712700D01*
Y6578867D01*
X12734314Y6584658D01*
X12754586Y6596362D01*
X12771138Y6612914D01*
X12782842Y6633186D01*
X12788633Y6654800D01*
D02*
G37*
G36*
X12687300D02*
X12611367D01*
X12617158Y6633186D01*
X12628862Y6612914D01*
X12645414Y6596362D01*
X12665686Y6584658D01*
X12687300Y6578867D01*
Y6654800D01*
D02*
G37*
G36*
X8851633D02*
X8775700D01*
Y6578867D01*
X8797314Y6584658D01*
X8817586Y6596362D01*
X8834138Y6612914D01*
X8845842Y6633186D01*
X8851633Y6654800D01*
D02*
G37*
G36*
X8750300D02*
X8674367D01*
X8680158Y6633186D01*
X8691862Y6612914D01*
X8708414Y6596362D01*
X8728686Y6584658D01*
X8750300Y6578867D01*
Y6654800D01*
D02*
G37*
G36*
X13093700Y6616362D02*
Y6533700D01*
X13176363D01*
X13169897Y6557823D01*
X13157339Y6579577D01*
X13139577Y6597339D01*
X13117822Y6609899D01*
X13093700Y6616362D01*
D02*
G37*
G36*
X13068300D02*
X13044177Y6609899D01*
X13022423Y6597339D01*
X13004662Y6579577D01*
X12992102Y6557823D01*
X12985638Y6533700D01*
X13068300D01*
Y6616362D01*
D02*
G37*
G36*
X10807700Y6565633D02*
Y6489700D01*
X10883633D01*
X10877842Y6511314D01*
X10866138Y6531586D01*
X10849586Y6548138D01*
X10829314Y6559842D01*
X10807700Y6565633D01*
D02*
G37*
G36*
X10782300D02*
X10760686Y6559842D01*
X10740414Y6548138D01*
X10723862Y6531586D01*
X10712158Y6511314D01*
X10706367Y6489700D01*
X10782300D01*
Y6565633D01*
D02*
G37*
G36*
X9789888Y6619700D02*
X9768112D01*
X9747079Y6614064D01*
X9728221Y6603176D01*
X9712824Y6587779D01*
X9701936Y6568921D01*
X9696300Y6547888D01*
Y6526112D01*
X9701936Y6505079D01*
X9712824Y6486221D01*
X9728221Y6470823D01*
X9747079Y6459936D01*
X9768112Y6454300D01*
X9789888D01*
X9810921Y6459936D01*
X9829779Y6470823D01*
X9845176Y6486221D01*
X9856064Y6505079D01*
X9861700Y6526112D01*
Y6547888D01*
X9856064Y6568921D01*
X9845176Y6587779D01*
X9829779Y6603176D01*
X9810921Y6614064D01*
X9789888Y6619700D01*
D02*
G37*
G36*
X10883633Y6464300D02*
X10807700D01*
Y6388367D01*
X10829314Y6394158D01*
X10849586Y6405862D01*
X10866138Y6422414D01*
X10877842Y6442686D01*
X10883633Y6464300D01*
D02*
G37*
G36*
X10782300D02*
X10706367D01*
X10712158Y6442686D01*
X10723862Y6422414D01*
X10740414Y6405862D01*
X10760686Y6394158D01*
X10782300Y6388367D01*
Y6464300D01*
D02*
G37*
G36*
X9789888Y6419700D02*
X9768112D01*
X9747079Y6414064D01*
X9728221Y6403176D01*
X9712824Y6387779D01*
X9701936Y6368921D01*
X9696300Y6347887D01*
Y6326112D01*
X9701936Y6305079D01*
X9712824Y6286221D01*
X9728221Y6270823D01*
X9747079Y6259936D01*
X9768112Y6254300D01*
X9789888D01*
X9810921Y6259936D01*
X9829779Y6270823D01*
X9845176Y6286221D01*
X9856064Y6305079D01*
X9861700Y6326112D01*
Y6347887D01*
X9856064Y6368921D01*
X9845176Y6387779D01*
X9829779Y6403176D01*
X9810921Y6414064D01*
X9789888Y6419700D01*
D02*
G37*
G36*
X13176363Y6508300D02*
X13081000D01*
X12985638D01*
X12992102Y6484177D01*
X13004662Y6462423D01*
X13022423Y6444661D01*
X13044177Y6432102D01*
X13061073Y6427574D01*
X13061073Y6401278D01*
X13049078Y6398064D01*
X13030222Y6387176D01*
X13014824Y6371779D01*
X13003935Y6352921D01*
X12998300Y6331888D01*
Y6310112D01*
X13003935Y6289079D01*
X13014824Y6270221D01*
X13030222Y6254824D01*
X13049078Y6243936D01*
X13070113Y6238300D01*
X13091888D01*
X13112921Y6243936D01*
X13131779Y6254824D01*
X13147176Y6270221D01*
X13158064Y6289079D01*
X13163699Y6310112D01*
Y6331888D01*
X13158064Y6352921D01*
X13147176Y6371779D01*
X13131779Y6387176D01*
X13112921Y6398064D01*
X13100926Y6401278D01*
X13100926Y6427574D01*
X13117822Y6432102D01*
X13139577Y6444661D01*
X13157339Y6462423D01*
X13169897Y6484177D01*
X13176363Y6508300D01*
D02*
G37*
G36*
X10363200Y6248133D02*
Y6172200D01*
X10439133D01*
X10433342Y6193814D01*
X10421638Y6214086D01*
X10405086Y6230638D01*
X10384814Y6242342D01*
X10363200Y6248133D01*
D02*
G37*
G36*
X10337800D02*
X10316186Y6242342D01*
X10295914Y6230638D01*
X10279362Y6214086D01*
X10267658Y6193814D01*
X10261867Y6172200D01*
X10337800D01*
Y6248133D01*
D02*
G37*
G36*
X10439133Y6146800D02*
X10363200D01*
Y6070867D01*
X10384814Y6076658D01*
X10405086Y6088362D01*
X10421638Y6104914D01*
X10433342Y6125186D01*
X10439133Y6146800D01*
D02*
G37*
G36*
X10337800D02*
X10261867D01*
X10267658Y6125186D01*
X10279362Y6104914D01*
X10295914Y6088362D01*
X10316186Y6076658D01*
X10337800Y6070867D01*
Y6146800D01*
D02*
G37*
G36*
X9789888Y6219700D02*
X9768112D01*
X9747079Y6214064D01*
X9728221Y6203176D01*
X9712824Y6187779D01*
X9701936Y6168921D01*
X9696300Y6147887D01*
Y6126112D01*
X9701936Y6105079D01*
X9712824Y6086221D01*
X9728221Y6070823D01*
X9747079Y6059936D01*
X9768112Y6054300D01*
X9789888D01*
X9810921Y6059936D01*
X9829779Y6070823D01*
X9845176Y6086221D01*
X9856064Y6105079D01*
X9861700Y6126112D01*
Y6147887D01*
X9856064Y6168921D01*
X9845176Y6187779D01*
X9829779Y6203176D01*
X9810921Y6214064D01*
X9789888Y6219700D01*
D02*
G37*
G36*
X13091888Y6203700D02*
X13070113D01*
X13049078Y6198064D01*
X13030222Y6187176D01*
X13014824Y6171779D01*
X13003935Y6152921D01*
X12998300Y6131888D01*
Y6110112D01*
X13003935Y6089079D01*
X13014824Y6070221D01*
X13030222Y6054824D01*
X13049078Y6043936D01*
X13070113Y6038300D01*
X13091888D01*
X13112921Y6043936D01*
X13131779Y6054824D01*
X13147176Y6070221D01*
X13158064Y6089079D01*
X13163699Y6110112D01*
Y6131888D01*
X13158064Y6152921D01*
X13147176Y6171779D01*
X13131779Y6187176D01*
X13112921Y6198064D01*
X13091888Y6203700D01*
D02*
G37*
G36*
X11421300Y5933633D02*
X11399686Y5927842D01*
X11379414Y5916138D01*
X11364000Y5900724D01*
X11348586Y5916138D01*
X11328314Y5927842D01*
X11306700Y5933633D01*
Y5845000D01*
X11281300D01*
Y5933633D01*
X11259686Y5927842D01*
X11239414Y5916138D01*
X11224000Y5900724D01*
X11208586Y5916138D01*
X11188314Y5927842D01*
X11166700Y5933633D01*
Y5845000D01*
X11154000D01*
Y5832300D01*
X11065367D01*
X11071158Y5810686D01*
X11082862Y5790414D01*
X11098277Y5775000D01*
X11082862Y5759586D01*
X11071158Y5739314D01*
X11065367Y5717700D01*
X11154000D01*
Y5692300D01*
X11065367D01*
X11071158Y5670686D01*
X11082862Y5650414D01*
X11098277Y5635000D01*
X11082862Y5619586D01*
X11071158Y5599314D01*
X11065367Y5577700D01*
X11154000D01*
Y5565000D01*
X11166700D01*
Y5476367D01*
X11188314Y5482158D01*
X11208586Y5493862D01*
X11224000Y5509276D01*
X11239414Y5493862D01*
X11259686Y5482158D01*
X11281300Y5476367D01*
Y5565000D01*
X11306700D01*
Y5476367D01*
X11328314Y5482158D01*
X11348586Y5493862D01*
X11364000Y5509276D01*
X11379414Y5493862D01*
X11399686Y5482158D01*
X11421300Y5476367D01*
Y5565000D01*
X11434000D01*
Y5577700D01*
X11522633D01*
X11516842Y5599314D01*
X11505138Y5619586D01*
X11489724Y5635000D01*
X11505138Y5650414D01*
X11516842Y5670686D01*
X11522633Y5692300D01*
X11434000D01*
Y5717700D01*
X11522633D01*
X11516842Y5739314D01*
X11505138Y5759586D01*
X11489724Y5775000D01*
X11505138Y5790414D01*
X11516842Y5810686D01*
X11522633Y5832300D01*
X11434000D01*
Y5845000D01*
X11421300D01*
Y5933633D01*
D02*
G37*
G36*
X11446700D02*
Y5857700D01*
X11522633D01*
X11516842Y5879314D01*
X11505138Y5899586D01*
X11488586Y5916138D01*
X11468314Y5927842D01*
X11446700Y5933633D01*
D02*
G37*
G36*
X11141300D02*
X11119686Y5927842D01*
X11099414Y5916138D01*
X11082862Y5899586D01*
X11071158Y5879314D01*
X11065367Y5857700D01*
X11141300D01*
Y5933633D01*
D02*
G37*
G36*
X9789888Y6019700D02*
X9768112D01*
X9747079Y6014064D01*
X9728221Y6003176D01*
X9712824Y5987779D01*
X9701936Y5968921D01*
X9696300Y5947888D01*
Y5926112D01*
X9701936Y5905079D01*
X9712824Y5886221D01*
X9728221Y5870823D01*
X9747079Y5859936D01*
X9768112Y5854300D01*
X9789888D01*
X9810921Y5859936D01*
X9829779Y5870823D01*
X9845176Y5886221D01*
X9856064Y5905079D01*
X9861700Y5926112D01*
Y5947888D01*
X9856064Y5968921D01*
X9845176Y5987779D01*
X9829779Y6003176D01*
X9810921Y6014064D01*
X9789888Y6019700D01*
D02*
G37*
G36*
X13091888Y6003700D02*
X13070113D01*
X13049078Y5998064D01*
X13030222Y5987176D01*
X13014824Y5971779D01*
X13003935Y5952921D01*
X12998300Y5931888D01*
Y5910112D01*
X13003935Y5889079D01*
X13014824Y5870221D01*
X13030222Y5854824D01*
X13049078Y5843936D01*
X13070113Y5838300D01*
X13091888D01*
X13112921Y5843936D01*
X13131779Y5854824D01*
X13147176Y5870221D01*
X13158064Y5889079D01*
X13163699Y5910112D01*
Y5931888D01*
X13158064Y5952921D01*
X13147176Y5971779D01*
X13131779Y5987176D01*
X13112921Y5998064D01*
X13091888Y6003700D01*
D02*
G37*
G36*
X9029700Y5803633D02*
Y5727700D01*
X9105633D01*
X9099842Y5749314D01*
X9088138Y5769586D01*
X9071586Y5786138D01*
X9051314Y5797842D01*
X9029700Y5803633D01*
D02*
G37*
G36*
X9004300D02*
X8982686Y5797842D01*
X8962414Y5786138D01*
X8945862Y5769586D01*
X8934158Y5749314D01*
X8928367Y5727700D01*
X9004300D01*
Y5803633D01*
D02*
G37*
G36*
X9789888Y5819700D02*
X9768112D01*
X9747079Y5814064D01*
X9728221Y5803176D01*
X9712824Y5787779D01*
X9701936Y5768921D01*
X9696300Y5747888D01*
Y5726112D01*
X9701936Y5705079D01*
X9712824Y5686221D01*
X9728221Y5670824D01*
X9747079Y5659936D01*
X9768112Y5654300D01*
X9789888D01*
X9810921Y5659936D01*
X9829779Y5670824D01*
X9845176Y5686221D01*
X9856064Y5705079D01*
X9861700Y5726112D01*
Y5747888D01*
X9856064Y5768921D01*
X9845176Y5787779D01*
X9829779Y5803176D01*
X9810921Y5814064D01*
X9789888Y5819700D01*
D02*
G37*
G36*
X13091888Y5803700D02*
X13070113D01*
X13049078Y5798064D01*
X13030222Y5787177D01*
X13014824Y5771779D01*
X13003935Y5752921D01*
X12998300Y5731888D01*
Y5710113D01*
X13003935Y5689079D01*
X13014824Y5670221D01*
X13030222Y5654824D01*
X13049078Y5643936D01*
X13070113Y5638300D01*
X13091888D01*
X13112921Y5643936D01*
X13131779Y5654824D01*
X13147176Y5670221D01*
X13158064Y5689079D01*
X13163699Y5710113D01*
Y5731888D01*
X13158064Y5752921D01*
X13147176Y5771779D01*
X13131779Y5787177D01*
X13112921Y5798064D01*
X13091888Y5803700D01*
D02*
G37*
G36*
X9105633Y5702300D02*
X9029700D01*
Y5626367D01*
X9051314Y5632158D01*
X9071586Y5643862D01*
X9088138Y5660414D01*
X9099842Y5680686D01*
X9105633Y5702300D01*
D02*
G37*
G36*
X9004300D02*
X8928367D01*
X8934158Y5680686D01*
X8945862Y5660414D01*
X8962414Y5643862D01*
X8982686Y5632158D01*
X9004300Y5626367D01*
Y5702300D01*
D02*
G37*
G36*
X7758875Y5805200D02*
X7735125D01*
X7712184Y5799053D01*
X7691616Y5787178D01*
X7674822Y5770384D01*
X7662947Y5749816D01*
X7656800Y5726875D01*
Y5703125D01*
X7662947Y5680184D01*
X7674822Y5659616D01*
X7691616Y5642822D01*
X7712184Y5630947D01*
X7735125Y5624800D01*
X7758875D01*
X7781816Y5630947D01*
X7802384Y5642822D01*
X7819178Y5659616D01*
X7831053Y5680184D01*
X7837200Y5703125D01*
Y5726875D01*
X7831053Y5749816D01*
X7819178Y5770384D01*
X7802384Y5787178D01*
X7781816Y5799053D01*
X7758875Y5805200D01*
D02*
G37*
G36*
X11522633Y5552300D02*
X11446700D01*
Y5476367D01*
X11468314Y5482158D01*
X11488586Y5493862D01*
X11505138Y5510414D01*
X11516842Y5530686D01*
X11522633Y5552300D01*
D02*
G37*
G36*
X11141300D02*
X11065367D01*
X11071158Y5530686D01*
X11082862Y5510414D01*
X11099414Y5493862D01*
X11119686Y5482158D01*
X11141300Y5476367D01*
Y5552300D01*
D02*
G37*
G36*
X9789888Y5619700D02*
X9768112D01*
X9747079Y5614064D01*
X9728221Y5603176D01*
X9712824Y5587779D01*
X9701936Y5568921D01*
X9696300Y5547888D01*
Y5526112D01*
X9701936Y5505079D01*
X9712824Y5486221D01*
X9728221Y5470823D01*
X9747079Y5459936D01*
X9768112Y5454300D01*
X9789888D01*
X9810921Y5459936D01*
X9829779Y5470823D01*
X9845176Y5486221D01*
X9856064Y5505079D01*
X9861700Y5526112D01*
Y5547888D01*
X9856064Y5568921D01*
X9845176Y5587779D01*
X9829779Y5603176D01*
X9810921Y5614064D01*
X9789888Y5619700D01*
D02*
G37*
G36*
X13091888Y5603700D02*
X13070113D01*
X13049078Y5598064D01*
X13030222Y5587177D01*
X13014824Y5571779D01*
X13003935Y5552921D01*
X12998300Y5531888D01*
Y5510112D01*
X13003935Y5489079D01*
X13014824Y5470221D01*
X13030222Y5454824D01*
X13049078Y5443936D01*
X13070113Y5438300D01*
X13091888D01*
X13112921Y5443936D01*
X13131779Y5454824D01*
X13147176Y5470221D01*
X13158064Y5489079D01*
X13163699Y5510112D01*
Y5531888D01*
X13158064Y5552921D01*
X13147176Y5571779D01*
X13131779Y5587177D01*
X13112921Y5598064D01*
X13091888Y5603700D01*
D02*
G37*
G36*
X7758875Y5551200D02*
X7735125D01*
X7712184Y5545053D01*
X7691616Y5533178D01*
X7674822Y5516384D01*
X7662947Y5495816D01*
X7656800Y5472875D01*
Y5449125D01*
X7662947Y5426184D01*
X7674822Y5405616D01*
X7691616Y5388822D01*
X7712184Y5376947D01*
X7735125Y5370800D01*
X7758875D01*
X7781816Y5376947D01*
X7802384Y5388822D01*
X7819178Y5405616D01*
X7831053Y5426184D01*
X7837200Y5449125D01*
Y5472875D01*
X7831053Y5495816D01*
X7819178Y5516384D01*
X7802384Y5533178D01*
X7781816Y5545053D01*
X7758875Y5551200D01*
D02*
G37*
G36*
X9789888Y5419700D02*
X9768112D01*
X9747079Y5414064D01*
X9728221Y5403176D01*
X9712824Y5387779D01*
X9701936Y5368921D01*
X9696300Y5347887D01*
Y5326112D01*
X9701936Y5305079D01*
X9712824Y5286221D01*
X9728221Y5270823D01*
X9747079Y5259936D01*
X9768112Y5254300D01*
X9789888D01*
X9810921Y5259936D01*
X9829779Y5270823D01*
X9845176Y5286221D01*
X9856064Y5305079D01*
X9861700Y5326112D01*
Y5347887D01*
X9856064Y5368921D01*
X9845176Y5387779D01*
X9829779Y5403176D01*
X9810921Y5414064D01*
X9789888Y5419700D01*
D02*
G37*
G36*
X13091888Y5403700D02*
X13070113D01*
X13049078Y5398064D01*
X13030222Y5387176D01*
X13014824Y5371779D01*
X13003935Y5352921D01*
X12998300Y5331888D01*
Y5310112D01*
X13003935Y5289079D01*
X13014824Y5270221D01*
X13030222Y5254824D01*
X13049078Y5243936D01*
X13070113Y5238300D01*
X13091888D01*
X13112921Y5243936D01*
X13131779Y5254824D01*
X13147176Y5270221D01*
X13158064Y5289079D01*
X13163699Y5310112D01*
Y5331888D01*
X13158064Y5352921D01*
X13147176Y5371779D01*
X13131779Y5387176D01*
X13112921Y5398064D01*
X13091888Y5403700D01*
D02*
G37*
G36*
X8013700Y5232133D02*
Y5156200D01*
X8089633D01*
X8083842Y5177814D01*
X8072138Y5198086D01*
X8055586Y5214638D01*
X8035314Y5226342D01*
X8013700Y5232133D01*
D02*
G37*
G36*
X7988300D02*
X7966686Y5226342D01*
X7946414Y5214638D01*
X7929862Y5198086D01*
X7918158Y5177814D01*
X7912367Y5156200D01*
X7988300D01*
Y5232133D01*
D02*
G37*
G36*
X7758875Y5297200D02*
X7735125D01*
X7712184Y5291053D01*
X7691616Y5279178D01*
X7674822Y5262384D01*
X7662947Y5241816D01*
X7656800Y5218875D01*
Y5195125D01*
X7662947Y5172184D01*
X7674822Y5151616D01*
X7691616Y5134822D01*
X7712184Y5122947D01*
X7735125Y5116800D01*
X7758875D01*
X7781816Y5122947D01*
X7802384Y5134822D01*
X7819178Y5151616D01*
X7831053Y5172184D01*
X7837200Y5195125D01*
Y5218875D01*
X7831053Y5241816D01*
X7819178Y5262384D01*
X7802384Y5279178D01*
X7781816Y5291053D01*
X7758875Y5297200D01*
D02*
G37*
G36*
X8089633Y5130800D02*
X8013700D01*
Y5054867D01*
X8035314Y5060658D01*
X8055586Y5072362D01*
X8072138Y5088914D01*
X8083842Y5109186D01*
X8089633Y5130800D01*
D02*
G37*
G36*
X7988300D02*
X7912367D01*
X7918158Y5109186D01*
X7929862Y5088914D01*
X7946414Y5072362D01*
X7966686Y5060658D01*
X7988300Y5054867D01*
Y5130800D01*
D02*
G37*
G36*
X9789888Y5219700D02*
X9768112D01*
X9747079Y5214064D01*
X9728221Y5203176D01*
X9712824Y5187779D01*
X9701936Y5168921D01*
X9696300Y5147888D01*
Y5126112D01*
X9701936Y5105079D01*
X9712824Y5086221D01*
X9728221Y5070823D01*
X9747079Y5059936D01*
X9768112Y5054300D01*
X9789888D01*
X9810921Y5059936D01*
X9829779Y5070823D01*
X9845176Y5086221D01*
X9856064Y5105079D01*
X9861700Y5126112D01*
Y5147888D01*
X9856064Y5168921D01*
X9845176Y5187779D01*
X9829779Y5203176D01*
X9810921Y5214064D01*
X9789888Y5219700D01*
D02*
G37*
G36*
X13091888Y5203700D02*
X13070113D01*
X13049078Y5198064D01*
X13030222Y5187177D01*
X13014824Y5171779D01*
X13003935Y5152921D01*
X12998300Y5131888D01*
Y5110112D01*
X13003935Y5089079D01*
X13014824Y5070221D01*
X13030222Y5054824D01*
X13049078Y5043936D01*
X13070113Y5038300D01*
X13091888D01*
X13112921Y5043936D01*
X13131779Y5054824D01*
X13147176Y5070221D01*
X13158064Y5089079D01*
X13163699Y5110112D01*
Y5131888D01*
X13158064Y5152921D01*
X13147176Y5171779D01*
X13131779Y5187177D01*
X13112921Y5198064D01*
X13091888Y5203700D01*
D02*
G37*
G36*
X7760547Y5055900D02*
X7759700D01*
Y4965700D01*
X7849900D01*
Y4966547D01*
X7842888Y4992718D01*
X7829340Y5016182D01*
X7810182Y5035340D01*
X7786718Y5048888D01*
X7760547Y5055900D01*
D02*
G37*
G36*
X10805032Y5156200D02*
X10784968D01*
X10765588Y5151007D01*
X10748212Y5140975D01*
X10734025Y5126788D01*
X10723993Y5109412D01*
X10718800Y5090032D01*
Y5069968D01*
X10723993Y5050588D01*
X10734025Y5033212D01*
X10748212Y5019025D01*
X10765588Y5008993D01*
X10784968Y5003800D01*
X10805032D01*
X10823689Y5008799D01*
X10831187Y5001300D01*
X10836196Y4984750D01*
X10831187Y4968200D01*
X10823689Y4960701D01*
X10805032Y4965700D01*
X10784968D01*
X10765588Y4960507D01*
X10748212Y4950475D01*
X10734025Y4936288D01*
X10723993Y4918912D01*
X10718800Y4899532D01*
Y4879468D01*
X10723993Y4860088D01*
X10734025Y4842712D01*
X10748212Y4828525D01*
X10765588Y4818493D01*
X10784968Y4813300D01*
X10805032D01*
X10824412Y4818493D01*
X10841788Y4828525D01*
X10855975Y4842712D01*
X10866007Y4860088D01*
X10871200Y4879468D01*
Y4893429D01*
X10886858Y4903021D01*
X10895585Y4904966D01*
X11410378Y4390173D01*
Y3027200D01*
X11357400D01*
Y3039900D01*
X11324699D01*
Y2947000D01*
Y2854100D01*
X11357400D01*
Y2866800D01*
X11604700D01*
Y2893282D01*
X11630100Y2906860D01*
X11639164Y2903105D01*
X11651800Y2901441D01*
Y2979000D01*
Y3056558D01*
X11639164Y3054895D01*
X11620214Y3047045D01*
X11603941Y3034559D01*
X11598294Y3027200D01*
X11538622D01*
Y4429884D01*
X11536158Y4442272D01*
X11529141Y4452774D01*
X10942524Y5039390D01*
X10932022Y5046408D01*
X10919634Y5048872D01*
X10891334D01*
X10871200Y5069968D01*
Y5090032D01*
X10866007Y5109412D01*
X10855975Y5126788D01*
X10841788Y5140975D01*
X10824412Y5151007D01*
X10805032Y5156200D01*
D02*
G37*
G36*
X9789888Y5019700D02*
X9768112D01*
X9747079Y5014064D01*
X9728221Y5003176D01*
X9712824Y4987779D01*
X9701936Y4968921D01*
X9696300Y4947887D01*
Y4926112D01*
X9701936Y4905079D01*
X9712824Y4886221D01*
X9728221Y4870823D01*
X9747079Y4859936D01*
X9768112Y4854300D01*
X9789888D01*
X9810921Y4859936D01*
X9829779Y4870823D01*
X9845176Y4886221D01*
X9856064Y4905079D01*
X9861700Y4926112D01*
Y4947887D01*
X9856064Y4968921D01*
X9845176Y4987779D01*
X9829779Y5003176D01*
X9810921Y5014064D01*
X9789888Y5019700D01*
D02*
G37*
G36*
X7849900Y4940300D02*
X7759700D01*
Y4850100D01*
X7760547D01*
X7786718Y4857112D01*
X7810182Y4870660D01*
X7829340Y4889818D01*
X7842888Y4913282D01*
X7849900Y4939453D01*
Y4940300D01*
D02*
G37*
G36*
X13091888Y5003700D02*
X13070113D01*
X13049078Y4998064D01*
X13030222Y4987176D01*
X13014824Y4971779D01*
X13003935Y4952921D01*
X12998300Y4931888D01*
Y4910112D01*
X13003935Y4889079D01*
X13014824Y4870221D01*
X13030222Y4854824D01*
X13049078Y4843936D01*
X13070113Y4838300D01*
X13091888D01*
X13112921Y4843936D01*
X13131779Y4854824D01*
X13147176Y4870221D01*
X13158064Y4889079D01*
X13163699Y4910112D01*
Y4931888D01*
X13158064Y4952921D01*
X13147176Y4971779D01*
X13131779Y4987176D01*
X13112921Y4998064D01*
X13091888Y5003700D01*
D02*
G37*
G36*
X9789888Y4819700D02*
X9768112D01*
X9747079Y4814064D01*
X9728221Y4803176D01*
X9712824Y4787779D01*
X9701936Y4768921D01*
X9696300Y4747888D01*
Y4726112D01*
X9701936Y4705079D01*
X9712824Y4686221D01*
X9728221Y4670824D01*
X9747079Y4659936D01*
X9768112Y4654300D01*
X9789888D01*
X9810921Y4659936D01*
X9829779Y4670824D01*
X9845176Y4686221D01*
X9856064Y4705079D01*
X9861700Y4726112D01*
Y4747888D01*
X9856064Y4768921D01*
X9845176Y4787779D01*
X9829779Y4803176D01*
X9810921Y4814064D01*
X9789888Y4819700D01*
D02*
G37*
G36*
X8331200Y4724133D02*
Y4648200D01*
X8407133D01*
X8401342Y4669814D01*
X8389638Y4690086D01*
X8373086Y4706638D01*
X8352814Y4718342D01*
X8331200Y4724133D01*
D02*
G37*
G36*
X8305800D02*
X8284186Y4718342D01*
X8263914Y4706638D01*
X8247362Y4690086D01*
X8235658Y4669814D01*
X8229867Y4648200D01*
X8305800D01*
Y4724133D01*
D02*
G37*
G36*
X13091888Y4803700D02*
X13070113D01*
X13049078Y4798064D01*
X13030222Y4787177D01*
X13014824Y4771779D01*
X13003935Y4752921D01*
X12998300Y4731888D01*
Y4710113D01*
X13003935Y4689079D01*
X13014824Y4670221D01*
X13030222Y4654824D01*
X13049078Y4643936D01*
X13070113Y4638300D01*
X13091888D01*
X13112921Y4643936D01*
X13131779Y4654824D01*
X13147176Y4670221D01*
X13158064Y4689079D01*
X13163699Y4710113D01*
Y4731888D01*
X13158064Y4752921D01*
X13147176Y4771779D01*
X13131779Y4787177D01*
X13112921Y4798064D01*
X13091888Y4803700D01*
D02*
G37*
G36*
X7758875Y4789200D02*
X7735125D01*
X7712184Y4783053D01*
X7691616Y4771178D01*
X7674822Y4754384D01*
X7662947Y4733816D01*
X7656800Y4710875D01*
Y4687125D01*
X7662947Y4664184D01*
X7674822Y4643616D01*
X7691616Y4626822D01*
X7712184Y4614947D01*
X7735125Y4608800D01*
X7758875D01*
X7781816Y4614947D01*
X7802384Y4626822D01*
X7819178Y4643616D01*
X7831053Y4664184D01*
X7837200Y4687125D01*
Y4710875D01*
X7831053Y4733816D01*
X7819178Y4754384D01*
X7802384Y4771178D01*
X7781816Y4783053D01*
X7758875Y4789200D01*
D02*
G37*
G36*
X8407133Y4622800D02*
X8331200D01*
Y4546867D01*
X8352814Y4552658D01*
X8373086Y4564362D01*
X8389638Y4580914D01*
X8401342Y4601186D01*
X8407133Y4622800D01*
D02*
G37*
G36*
X8305800D02*
X8229867D01*
X8235658Y4601186D01*
X8247362Y4580914D01*
X8263914Y4564362D01*
X8284186Y4552658D01*
X8305800Y4546867D01*
Y4622800D01*
D02*
G37*
G36*
X9789888Y4619700D02*
X9768112D01*
X9747079Y4614064D01*
X9728221Y4603176D01*
X9712824Y4587779D01*
X9701936Y4568921D01*
X9696300Y4547888D01*
Y4526112D01*
X9701936Y4505079D01*
X9712824Y4486221D01*
X9728221Y4470823D01*
X9747079Y4459936D01*
X9768112Y4454300D01*
X9789888D01*
X9810921Y4459936D01*
X9829779Y4470823D01*
X9845176Y4486221D01*
X9856064Y4505079D01*
X9861700Y4526112D01*
Y4547888D01*
X9856064Y4568921D01*
X9845176Y4587779D01*
X9829779Y4603176D01*
X9810921Y4614064D01*
X9789888Y4619700D01*
D02*
G37*
G36*
X13091888Y4603700D02*
X13070113D01*
X13049078Y4598064D01*
X13030222Y4587176D01*
X13014824Y4571779D01*
X13003935Y4552921D01*
X12998300Y4531888D01*
Y4510112D01*
X13003935Y4489079D01*
X13014824Y4470221D01*
X13030222Y4454824D01*
X13049078Y4443936D01*
X13070113Y4438300D01*
X13091888D01*
X13112921Y4443936D01*
X13131779Y4454824D01*
X13147176Y4470221D01*
X13158064Y4489079D01*
X13163699Y4510112D01*
Y4531888D01*
X13158064Y4552921D01*
X13147176Y4571779D01*
X13131779Y4587176D01*
X13112921Y4598064D01*
X13091888Y4603700D01*
D02*
G37*
G36*
X7837200Y4535200D02*
X7656800D01*
Y4354800D01*
X7837200D01*
Y4535200D01*
D02*
G37*
G36*
X9789888Y4419700D02*
X9768112D01*
X9747079Y4414064D01*
X9728221Y4403176D01*
X9712824Y4387779D01*
X9701936Y4368921D01*
X9696300Y4347888D01*
Y4326112D01*
X9701936Y4305079D01*
X9712824Y4286221D01*
X9728221Y4270824D01*
X9747079Y4259936D01*
X9768112Y4254300D01*
X9789888D01*
X9810921Y4259936D01*
X9829779Y4270824D01*
X9845176Y4286221D01*
X9856064Y4305079D01*
X9861700Y4326112D01*
Y4347888D01*
X9856064Y4368921D01*
X9845176Y4387779D01*
X9829779Y4403176D01*
X9810921Y4414064D01*
X9789888Y4419700D01*
D02*
G37*
G36*
X13091888Y4403700D02*
X13070113D01*
X13049078Y4398064D01*
X13030222Y4387177D01*
X13014824Y4371779D01*
X13003935Y4352921D01*
X12998300Y4331888D01*
Y4310113D01*
X13003935Y4289079D01*
X13014824Y4270221D01*
X13030222Y4254824D01*
X13049078Y4243936D01*
X13070113Y4238300D01*
X13091888D01*
X13112921Y4243936D01*
X13131779Y4254824D01*
X13147176Y4270221D01*
X13158064Y4289079D01*
X13163699Y4310113D01*
Y4331888D01*
X13158064Y4352921D01*
X13147176Y4371779D01*
X13131779Y4387177D01*
X13112921Y4398064D01*
X13091888Y4403700D01*
D02*
G37*
G36*
X9410700Y4279633D02*
Y4203700D01*
X9486633D01*
X9480842Y4225314D01*
X9469138Y4245586D01*
X9452586Y4262138D01*
X9432314Y4273842D01*
X9410700Y4279633D01*
D02*
G37*
G36*
X9385300D02*
X9363686Y4273842D01*
X9343414Y4262138D01*
X9326862Y4245586D01*
X9315158Y4225314D01*
X9309367Y4203700D01*
X9385300D01*
Y4279633D01*
D02*
G37*
G36*
X9486633Y4178300D02*
X9410700D01*
Y4102367D01*
X9432314Y4108158D01*
X9452586Y4119862D01*
X9469138Y4136414D01*
X9480842Y4156686D01*
X9486633Y4178300D01*
D02*
G37*
G36*
X9385300D02*
X9309367D01*
X9315158Y4156686D01*
X9326862Y4136414D01*
X9343414Y4119862D01*
X9363686Y4108158D01*
X9385300Y4102367D01*
Y4178300D01*
D02*
G37*
G36*
X9789888Y4219700D02*
X9768112D01*
X9747079Y4214064D01*
X9728221Y4203176D01*
X9712824Y4187779D01*
X9701936Y4168921D01*
X9696300Y4147888D01*
Y4126112D01*
X9701936Y4105079D01*
X9712824Y4086221D01*
X9728221Y4070823D01*
X9747079Y4059936D01*
X9768112Y4054300D01*
X9789888D01*
X9810921Y4059936D01*
X9829779Y4070823D01*
X9845176Y4086221D01*
X9856064Y4105079D01*
X9861700Y4126112D01*
Y4147888D01*
X9856064Y4168921D01*
X9845176Y4187779D01*
X9829779Y4203176D01*
X9810921Y4214064D01*
X9789888Y4219700D01*
D02*
G37*
G36*
X13091888Y4203700D02*
X13070113D01*
X13049078Y4198064D01*
X13030222Y4187177D01*
X13014824Y4171779D01*
X13003935Y4152921D01*
X12998300Y4131888D01*
Y4110112D01*
X13003935Y4089079D01*
X13014824Y4070221D01*
X13030222Y4054824D01*
X13049078Y4043936D01*
X13070113Y4038300D01*
X13091888D01*
X13112921Y4043936D01*
X13131779Y4054824D01*
X13147176Y4070221D01*
X13158064Y4089079D01*
X13163699Y4110112D01*
Y4131888D01*
X13158064Y4152921D01*
X13147176Y4171779D01*
X13131779Y4187177D01*
X13112921Y4198064D01*
X13091888Y4203700D01*
D02*
G37*
G36*
X9789888Y4019700D02*
X9768112D01*
X9747079Y4014064D01*
X9728221Y4003176D01*
X9712824Y3987779D01*
X9701936Y3968921D01*
X9696300Y3947888D01*
Y3926112D01*
X9701936Y3905079D01*
X9712824Y3886221D01*
X9728221Y3870824D01*
X9747079Y3859936D01*
X9768112Y3854300D01*
X9789888D01*
X9810921Y3859936D01*
X9829779Y3870824D01*
X9845176Y3886221D01*
X9856064Y3905079D01*
X9861700Y3926112D01*
Y3947888D01*
X9856064Y3968921D01*
X9845176Y3987779D01*
X9829779Y4003176D01*
X9810921Y4014064D01*
X9789888Y4019700D01*
D02*
G37*
G36*
X13091888Y4003700D02*
X13070113D01*
X13049078Y3998064D01*
X13030222Y3987177D01*
X13014824Y3971779D01*
X13003935Y3952921D01*
X12998300Y3931888D01*
Y3910113D01*
X13003935Y3889079D01*
X13014824Y3870221D01*
X13030222Y3854824D01*
X13049078Y3843936D01*
X13070113Y3838300D01*
X13091888D01*
X13112921Y3843936D01*
X13131779Y3854824D01*
X13147176Y3870221D01*
X13158064Y3889079D01*
X13163699Y3910113D01*
Y3931888D01*
X13158064Y3952921D01*
X13147176Y3971779D01*
X13131779Y3987177D01*
X13112921Y3998064D01*
X13091888Y4003700D01*
D02*
G37*
G36*
X9789888Y3819700D02*
X9768112D01*
X9747079Y3814064D01*
X9728221Y3803176D01*
X9712824Y3787779D01*
X9701936Y3768921D01*
X9696300Y3747888D01*
Y3726112D01*
X9701936Y3705079D01*
X9712824Y3686221D01*
X9728221Y3670823D01*
X9747079Y3659936D01*
X9768112Y3654300D01*
X9789888D01*
X9810921Y3659936D01*
X9829779Y3670823D01*
X9845176Y3686221D01*
X9856064Y3705079D01*
X9861700Y3726112D01*
Y3747888D01*
X9856064Y3768921D01*
X9845176Y3787779D01*
X9829779Y3803176D01*
X9810921Y3814064D01*
X9789888Y3819700D01*
D02*
G37*
G36*
X13091888Y3803700D02*
X13070113D01*
X13049078Y3798064D01*
X13030222Y3787177D01*
X13014824Y3771779D01*
X13003935Y3752921D01*
X12998300Y3731888D01*
Y3710112D01*
X13003935Y3689079D01*
X13014824Y3670221D01*
X13030222Y3654824D01*
X13049078Y3643936D01*
X13070113Y3638300D01*
X13091888D01*
X13112921Y3643936D01*
X13131779Y3654824D01*
X13147176Y3670221D01*
X13158064Y3689079D01*
X13163699Y3710112D01*
Y3731888D01*
X13158064Y3752921D01*
X13147176Y3771779D01*
X13131779Y3787177D01*
X13112921Y3798064D01*
X13091888Y3803700D01*
D02*
G37*
G36*
X9789888Y3619700D02*
X9768112D01*
X9747079Y3614064D01*
X9728221Y3603176D01*
X9712824Y3587779D01*
X9701936Y3568921D01*
X9696300Y3547888D01*
Y3526112D01*
X9701936Y3505079D01*
X9712824Y3486221D01*
X9728221Y3470824D01*
X9747079Y3459936D01*
X9768112Y3454300D01*
X9789888D01*
X9810921Y3459936D01*
X9829779Y3470824D01*
X9845176Y3486221D01*
X9856064Y3505079D01*
X9861700Y3526112D01*
Y3547888D01*
X9856064Y3568921D01*
X9845176Y3587779D01*
X9829779Y3603176D01*
X9810921Y3614064D01*
X9789888Y3619700D01*
D02*
G37*
G36*
X13091888Y3603700D02*
X13070113D01*
X13049078Y3598064D01*
X13030222Y3587177D01*
X13014824Y3571779D01*
X13003935Y3552921D01*
X12998300Y3531888D01*
Y3510113D01*
X13003935Y3489079D01*
X13014824Y3470221D01*
X13030222Y3454824D01*
X13049078Y3443936D01*
X13070113Y3438300D01*
X13091888D01*
X13112921Y3443936D01*
X13131779Y3454824D01*
X13147176Y3470221D01*
X13158064Y3489079D01*
X13163699Y3510113D01*
Y3531888D01*
X13158064Y3552921D01*
X13147176Y3571779D01*
X13131779Y3587177D01*
X13112921Y3598064D01*
X13091888Y3603700D01*
D02*
G37*
G36*
X9789888Y3419700D02*
X9768112D01*
X9747079Y3414064D01*
X9728221Y3403176D01*
X9712824Y3387779D01*
X9701936Y3368921D01*
X9696300Y3347888D01*
Y3326112D01*
X9701936Y3305079D01*
X9712824Y3286221D01*
X9728221Y3270824D01*
X9747079Y3259936D01*
X9768112Y3254300D01*
X9789888D01*
X9810921Y3259936D01*
X9829779Y3270824D01*
X9845176Y3286221D01*
X9856064Y3305079D01*
X9861700Y3326112D01*
Y3347888D01*
X9856064Y3368921D01*
X9845176Y3387779D01*
X9829779Y3403176D01*
X9810921Y3414064D01*
X9789888Y3419700D01*
D02*
G37*
G36*
X13091888Y3403700D02*
X13070113D01*
X13049078Y3398064D01*
X13030222Y3387177D01*
X13014824Y3371779D01*
X13003935Y3352921D01*
X12998300Y3331888D01*
Y3310113D01*
X13003935Y3289079D01*
X13014824Y3270221D01*
X13030222Y3254824D01*
X13049078Y3243936D01*
X13070113Y3238300D01*
X13091888D01*
X13112921Y3243936D01*
X13131779Y3254824D01*
X13147176Y3270221D01*
X13158064Y3289079D01*
X13163699Y3310113D01*
Y3331888D01*
X13158064Y3352921D01*
X13147176Y3371779D01*
X13131779Y3387177D01*
X13112921Y3398064D01*
X13091888Y3403700D01*
D02*
G37*
G36*
X9789888Y3219700D02*
X9768112D01*
X9747079Y3214064D01*
X9728221Y3203176D01*
X9712824Y3187779D01*
X9701936Y3168921D01*
X9696300Y3147888D01*
Y3126112D01*
X9701936Y3105079D01*
X9712824Y3086221D01*
X9728221Y3070823D01*
X9747079Y3059936D01*
X9768112Y3054300D01*
X9789888D01*
X9810921Y3059936D01*
X9829779Y3070823D01*
X9845176Y3086221D01*
X9856064Y3105079D01*
X9861700Y3126112D01*
Y3147888D01*
X9856064Y3168921D01*
X9845176Y3187779D01*
X9829779Y3203176D01*
X9810921Y3214064D01*
X9789888Y3219700D01*
D02*
G37*
G36*
X13091888Y3203700D02*
X13070113D01*
X13049078Y3198064D01*
X13030222Y3187177D01*
X13014824Y3171779D01*
X13003935Y3152921D01*
X12998300Y3131888D01*
Y3110112D01*
X13003935Y3089079D01*
X13014824Y3070221D01*
X13030222Y3054824D01*
X13049078Y3043936D01*
X13070113Y3038300D01*
X13091888D01*
X13112921Y3043936D01*
X13131779Y3054824D01*
X13147176Y3070221D01*
X13158064Y3089079D01*
X13163699Y3110112D01*
Y3131888D01*
X13158064Y3152921D01*
X13147176Y3171779D01*
X13131779Y3187177D01*
X13112921Y3198064D01*
X13091888Y3203700D01*
D02*
G37*
G36*
X11677200Y3056558D02*
Y2991700D01*
X11746400D01*
X11745395Y2999336D01*
X11737545Y3018286D01*
X11725059Y3034559D01*
X11708786Y3047045D01*
X11689836Y3054895D01*
X11677200Y3056558D01*
D02*
G37*
G36*
X11206800D02*
X11194164Y3054895D01*
X11175214Y3047045D01*
X11158941Y3034559D01*
X11146455Y3018286D01*
X11138605Y2999336D01*
X11137600Y2991700D01*
X11206800D01*
Y3056558D01*
D02*
G37*
G36*
X11746400Y2966300D02*
X11677200D01*
Y2901441D01*
X11689836Y2903105D01*
X11708786Y2910955D01*
X11725059Y2923441D01*
X11737545Y2939714D01*
X11745395Y2958664D01*
X11746400Y2966300D01*
D02*
G37*
G36*
X11206800D02*
X11137600D01*
X11138605Y2958664D01*
X11146455Y2939714D01*
X11158941Y2923441D01*
X11175214Y2910955D01*
X11194164Y2903105D01*
X11206800Y2901441D01*
Y2966300D01*
D02*
G37*
G36*
X9789888Y3019700D02*
X9768112D01*
X9747079Y3014064D01*
X9728221Y3003176D01*
X9712824Y2987779D01*
X9701936Y2968921D01*
X9696300Y2947887D01*
Y2926112D01*
X9701936Y2905079D01*
X9712824Y2886221D01*
X9728221Y2870823D01*
X9747079Y2859936D01*
X9768112Y2854300D01*
X9789888D01*
X9810921Y2859936D01*
X9829779Y2870823D01*
X9845176Y2886221D01*
X9856064Y2905079D01*
X9861700Y2926112D01*
Y2947887D01*
X9856064Y2968921D01*
X9845176Y2987779D01*
X9829779Y3003176D01*
X9810921Y3014064D01*
X9789888Y3019700D01*
D02*
G37*
G36*
X11232200Y3056558D02*
Y2979000D01*
Y2901441D01*
X11241200Y2902626D01*
X11248388Y2900089D01*
X11266600Y2884627D01*
Y2854100D01*
X11299299D01*
Y2947000D01*
Y3039900D01*
X11273098D01*
X11263786Y3047045D01*
X11244836Y3054895D01*
X11232200Y3056558D01*
D02*
G37*
G36*
X13091888Y3003700D02*
X13070113D01*
X13049078Y2998064D01*
X13030222Y2987176D01*
X13014824Y2971779D01*
X13003935Y2952921D01*
X12998300Y2931888D01*
Y2910112D01*
X13003935Y2889079D01*
X13014824Y2870221D01*
X13030222Y2854824D01*
X13049078Y2843936D01*
X13070113Y2838300D01*
X13091888D01*
X13112921Y2843936D01*
X13131779Y2854824D01*
X13147176Y2870221D01*
X13158064Y2889079D01*
X13163699Y2910112D01*
Y2931888D01*
X13158064Y2952921D01*
X13147176Y2971779D01*
X13131779Y2987176D01*
X13112921Y2998064D01*
X13091888Y3003700D01*
D02*
G37*
G36*
X9814000Y2820634D02*
X9744000D01*
X9725388Y2816932D01*
X9709610Y2806389D01*
X9699068Y2790611D01*
X9695366Y2772000D01*
Y2702000D01*
X9699068Y2683388D01*
X9709610Y2667610D01*
X9725388Y2657067D01*
X9744000Y2653365D01*
X9814000D01*
X9832612Y2657067D01*
X9848390Y2667610D01*
X9858932Y2683388D01*
X9862634Y2702000D01*
Y2772000D01*
X9858932Y2790611D01*
X9848390Y2806389D01*
X9832612Y2816932D01*
X9814000Y2820634D01*
D02*
G37*
G36*
X13116000Y2804634D02*
X13046001D01*
X13027388Y2800932D01*
X13011610Y2790390D01*
X13001068Y2774611D01*
X12997366Y2756000D01*
Y2686000D01*
X13001068Y2667388D01*
X13011610Y2651610D01*
X13027388Y2641068D01*
X13046001Y2637366D01*
X13116000D01*
X13134612Y2641068D01*
X13150391Y2651610D01*
X13160931Y2667388D01*
X13164635Y2686000D01*
Y2756000D01*
X13160931Y2774611D01*
X13150391Y2790390D01*
X13134612Y2800932D01*
X13116000Y2804634D01*
D02*
G37*
%LPD*%
D17*
X11557000Y2667000D02*
X11859500D01*
X11024500D02*
X11327000D01*
D18*
X10798268Y5080000D02*
X10861768Y5016500D01*
X11506250Y2947750D02*
Y4429884D01*
X10919634Y5016500D02*
X11506250Y4429884D01*
X10795000Y5080000D02*
X10798268D01*
X10861768Y5016500D02*
X10919634D01*
X11506250Y2947750D02*
X11507000Y2947000D01*
X10861768Y4953000D02*
X10893332D01*
X10798268Y4889500D02*
X10861768Y4953000D01*
X11442000Y2947000D02*
X11442750Y2947750D01*
Y4403581D01*
X10893332Y4953000D02*
X11442750Y4403581D01*
X10795000Y4889500D02*
X10798268D01*
D19*
X11219500Y2979000D02*
D03*
X11664500D02*
D03*
D20*
X9779000Y5737000D02*
D03*
X13081000Y6521000D02*
D03*
Y3921000D02*
D03*
Y3721000D02*
D03*
Y3521000D02*
D03*
Y3321000D02*
D03*
Y2921000D02*
D03*
Y3121000D02*
D03*
Y4121000D02*
D03*
Y4321000D02*
D03*
Y4521000D02*
D03*
Y4721000D02*
D03*
Y4921000D02*
D03*
Y5121000D02*
D03*
Y5321000D02*
D03*
Y5521000D02*
D03*
Y5721000D02*
D03*
Y5921000D02*
D03*
Y6121000D02*
D03*
Y6321000D02*
D03*
X9779000Y3937000D02*
D03*
Y3737000D02*
D03*
Y3537000D02*
D03*
Y3337000D02*
D03*
Y2937000D02*
D03*
Y3137000D02*
D03*
Y4137000D02*
D03*
Y4337000D02*
D03*
Y4537000D02*
D03*
Y4737000D02*
D03*
Y4937000D02*
D03*
Y5137000D02*
D03*
Y5337000D02*
D03*
Y5537000D02*
D03*
Y5937000D02*
D03*
Y6137000D02*
D03*
Y6337000D02*
D03*
Y6537000D02*
D03*
D21*
X7747000Y5207000D02*
D03*
Y4953000D02*
D03*
Y4699000D02*
D03*
Y5461000D02*
D03*
Y5715000D02*
D03*
D22*
Y4445000D02*
D03*
D23*
X13081000Y2721000D02*
D03*
X9779000Y2737000D02*
D03*
D24*
X11434000Y5565000D02*
D03*
X11294000D02*
D03*
X11154000D02*
D03*
Y5705000D02*
D03*
X11294000D02*
D03*
X11434000D02*
D03*
Y5845000D02*
D03*
X11294000D02*
D03*
X11154000D02*
D03*
X10350500Y6159500D02*
D03*
X12700000Y6667500D02*
D03*
X9017000Y5715000D02*
D03*
X8763000Y6667500D02*
D03*
X10795000Y6477000D02*
D03*
X9398000Y4191000D02*
D03*
X8318500Y4635500D02*
D03*
X8001000Y5143500D02*
D03*
X10795000Y4889500D02*
D03*
Y5080000D02*
D03*
D25*
X11859500Y2667000D02*
D03*
X11024500D02*
D03*
D26*
X11377000Y2947000D02*
D03*
X11442000D02*
D03*
X11507000D02*
D03*
X11312000D02*
D03*
X11572000D02*
D03*
D27*
X11557000Y2667000D02*
D03*
X11327000D02*
D03*
%TF.MD5,c28f3b08ecef51577f7b34ea111b5892*%
M02*
