G04*
G04 #@! TF.GenerationSoftware,Altium Limited,Altium Designer,25.8.1 (18)*
G04*
G04 Layer_Color=32896*
%FSLAX44Y44*%
%MOMM*%
G71*
G04*
G04 #@! TF.SameCoordinates,F83B8B20-63E5-468B-AA92-8036A68B70BD*
G04*
G04*
G04 #@! TF.FilePolarity,Positive*
G04*
G01*
G75*
%ADD13C,0.2540*%
%ADD46C,0.1500*%
D13*
X1106173Y328163D02*
X1111252D01*
X1108712D01*
Y315467D01*
X1111252Y312928D01*
X1113791D01*
X1116330Y315467D01*
X1101095Y312928D02*
X1096017D01*
X1098556D01*
Y328163D01*
X1101095Y325624D01*
D46*
X1107200Y296400D02*
X1113200D01*
X1175200D02*
X1181200D01*
X1107200Y278900D02*
Y296400D01*
Y246300D02*
Y254900D01*
X1181200Y246300D02*
Y254900D01*
Y278900D02*
Y296400D01*
X1104200Y241550D02*
X1105950Y240300D01*
X1109762Y246400D01*
X1104200Y241550D02*
X1107200Y246300D01*
X1181200D02*
X1184200Y241550D01*
X1178637Y246400D02*
X1182450Y240300D01*
X1184200Y241550D01*
X1111800Y240300D02*
X1176600D01*
X1111800D02*
Y246400D01*
X1109762D02*
X1111800D01*
X1176600Y240300D02*
Y246400D01*
X1178637D01*
M02*
