G04*
G04 #@! TF.GenerationSoftware,Altium Limited,Altium Designer,25.8.1 (18)*
G04*
G04 Layer_Color=8388736*
%FSLAX44Y44*%
%MOMM*%
G71*
G04*
G04 #@! TF.SameCoordinates,F83B8B20-63E5-468B-AA92-8036A68B70BD*
G04*
G04*
G04 #@! TF.FilePolarity,Negative*
G04*
G01*
G75*
%ADD14R,1.3071X0.9061*%
%ADD21R,1.7032X1.1032*%
%ADD22R,1.7282X0.8532*%
%ADD23R,1.4032X1.4032*%
%ADD24R,1.6732X1.2232*%
%ADD25R,1.1032X1.1032*%
%ADD26R,1.1032X1.7032*%
%ADD27O,1.3532X1.2532*%
%ADD28C,1.6032*%
%ADD29C,1.7532*%
%ADD30R,1.7532X1.7532*%
G04:AMPARAMS|DCode=31|XSize=1.6032mm|YSize=1.6032mm|CornerRadius=0.4516mm|HoleSize=0mm|Usage=FLASHONLY|Rotation=90.000|XOffset=0mm|YOffset=0mm|HoleType=Round|Shape=RoundedRectangle|*
%AMROUNDEDRECTD31*
21,1,1.6032,0.7000,0,0,90.0*
21,1,0.7000,1.6032,0,0,90.0*
1,1,0.9032,0.3500,0.3500*
1,1,0.9032,0.3500,-0.3500*
1,1,0.9032,-0.3500,-0.3500*
1,1,0.9032,-0.3500,0.3500*
%
%ADD31ROUNDEDRECTD31*%
%ADD32C,1.4732*%
D14*
X825500Y566561D02*
D03*
Y551039D02*
D03*
Y528461D02*
D03*
Y512939D02*
D03*
X939800Y444500D02*
D03*
Y576439D02*
D03*
Y630061D02*
D03*
Y614539D02*
D03*
Y591961D02*
D03*
Y498122D02*
D03*
Y482600D02*
D03*
Y460022D02*
D03*
X1016000Y668161D02*
D03*
Y652639D02*
D03*
D21*
X1056900Y596900D02*
D03*
Y647700D02*
D03*
X1231900D02*
D03*
Y635000D02*
D03*
Y622300D02*
D03*
Y609600D02*
D03*
Y596900D02*
D03*
Y584200D02*
D03*
Y571500D02*
D03*
Y558800D02*
D03*
Y546100D02*
D03*
Y533400D02*
D03*
Y520700D02*
D03*
Y508000D02*
D03*
Y495300D02*
D03*
Y482600D02*
D03*
X1056900D02*
D03*
Y495300D02*
D03*
Y508000D02*
D03*
Y520700D02*
D03*
Y533400D02*
D03*
Y546100D02*
D03*
Y558800D02*
D03*
Y571500D02*
D03*
Y584200D02*
D03*
Y609600D02*
D03*
Y622300D02*
D03*
Y635000D02*
D03*
D22*
X865320Y603250D02*
D03*
Y641350D02*
D03*
Y628650D02*
D03*
Y615950D02*
D03*
X811080Y603250D02*
D03*
Y615950D02*
D03*
Y628650D02*
D03*
Y641350D02*
D03*
D23*
X863600Y447800D02*
D03*
Y479300D02*
D03*
X901700D02*
D03*
Y511300D02*
D03*
X863600D02*
D03*
X901700Y447800D02*
D03*
Y415800D02*
D03*
X863600D02*
D03*
D24*
X901700Y655700D02*
D03*
Y588900D02*
D03*
X1016000Y614300D02*
D03*
X901700Y604900D02*
D03*
Y639700D02*
D03*
X1016000Y630300D02*
D03*
D25*
X1129400Y584500D02*
D03*
X1143400D02*
D03*
Y570500D02*
D03*
Y556500D02*
D03*
X1129400D02*
D03*
X1115400D02*
D03*
Y570500D02*
D03*
Y584500D02*
D03*
X1129400Y570500D02*
D03*
D26*
X1214250Y470100D02*
D03*
X1201550D02*
D03*
X1188850D02*
D03*
X1176150D02*
D03*
X1163450D02*
D03*
X1150750D02*
D03*
X1138050D02*
D03*
X1125350D02*
D03*
X1112650D02*
D03*
X1099950D02*
D03*
X1087250D02*
D03*
X1074550D02*
D03*
D27*
X1121950Y297900D02*
D03*
X1166450D02*
D03*
D28*
X977900Y573700D02*
D03*
X1308100Y652100D02*
D03*
Y392100D02*
D03*
Y372100D02*
D03*
Y352100D02*
D03*
Y332100D02*
D03*
Y292100D02*
D03*
Y312100D02*
D03*
Y412100D02*
D03*
Y432100D02*
D03*
Y452100D02*
D03*
Y472100D02*
D03*
Y492100D02*
D03*
Y512100D02*
D03*
Y532100D02*
D03*
Y552100D02*
D03*
Y572100D02*
D03*
Y592100D02*
D03*
Y612100D02*
D03*
Y632100D02*
D03*
X977900Y393700D02*
D03*
Y373700D02*
D03*
Y353700D02*
D03*
Y333700D02*
D03*
Y293700D02*
D03*
Y313700D02*
D03*
Y413700D02*
D03*
Y433700D02*
D03*
Y453700D02*
D03*
Y473700D02*
D03*
Y493700D02*
D03*
Y513700D02*
D03*
Y533700D02*
D03*
Y553700D02*
D03*
Y593700D02*
D03*
Y613700D02*
D03*
Y633700D02*
D03*
Y653700D02*
D03*
D29*
X774700Y520700D02*
D03*
Y495300D02*
D03*
Y469900D02*
D03*
Y546100D02*
D03*
Y571500D02*
D03*
D30*
Y444500D02*
D03*
D31*
X1308100Y272100D02*
D03*
X977900Y273700D02*
D03*
D32*
X1143400Y556500D02*
D03*
X1129400D02*
D03*
X1115400D02*
D03*
Y570500D02*
D03*
X1129400D02*
D03*
X1143400D02*
D03*
Y584500D02*
D03*
X1129400D02*
D03*
X1115400D02*
D03*
X1035050Y615950D02*
D03*
X1270000Y666750D02*
D03*
X901700Y571500D02*
D03*
X876300Y666750D02*
D03*
X1079500Y647700D02*
D03*
X939800Y419100D02*
D03*
X831850Y463550D02*
D03*
X800100Y514350D02*
D03*
X1079500Y488950D02*
D03*
Y508000D02*
D03*
M02*
