%TF.GenerationSoftware,Altium Limited,Altium Designer,25.8.1 (18)*%
G04 Layer_Color=65535*
%FSLAX45Y45*%
%MOMM*%
%TF.SameCoordinates,D030ABF7-A58C-4A07-9546-7BFCEFCD6942*%
%TF.FilePolarity,Positive*%
%TF.FileFunction,Legend,Top*%
%TF.Part,Single*%
G01*
G75*
%TA.AperFunction,NonConductor*%
%ADD28C,0.25000*%
%ADD29C,0.20000*%
%ADD30C,0.10000*%
%ADD31C,0.25400*%
D28*
X7567500Y4445000D02*
G03*
X7567500Y4445000I-12500J0D01*
G01*
X13093500Y2556000D02*
G03*
X13093500Y2556000I-12500J0D01*
G01*
X9791500Y2572000D02*
G03*
X9791500Y2572000I-12500J0D01*
G01*
D29*
X8867000Y4793000D02*
G03*
X8877000Y4793000I5000J0D01*
G01*
D02*
G03*
X8867000Y4793000I-5000J0D01*
G01*
X8786000Y5113000D02*
G03*
X8776000Y5113000I-5000J0D01*
G01*
D02*
G03*
X8786000Y5113000I5000J0D01*
G01*
X9167000Y4478000D02*
G03*
X9157000Y4478000I-5000J0D01*
G01*
D02*
G03*
X9167000Y4478000I5000J0D01*
G01*
X8486000Y4158000D02*
G03*
X8496000Y4158000I5000J0D01*
G01*
D02*
G03*
X8486000Y4158000I-5000J0D01*
G01*
X8145000Y5465089D02*
Y5710911D01*
X8365000Y5465089D02*
Y5710911D01*
X8145000Y5084089D02*
Y5329911D01*
X8365000Y5084089D02*
Y5329911D01*
X7620000Y4318000D02*
Y5842000D01*
Y4318000D02*
X7874000D01*
Y5842000D01*
X7620000D02*
X7874000D01*
X9288000Y6100089D02*
Y6345911D01*
X9508000Y6100089D02*
Y6345911D01*
X9107000Y4893000D02*
Y5043000D01*
X8927000Y4863000D02*
Y5043000D01*
X8867000Y4793000D02*
X8877000D01*
X8546000Y4863000D02*
Y5013000D01*
X8726000Y4863000D02*
Y5043000D01*
X8776000Y5113000D02*
X8786000D01*
X8034500Y6481000D02*
X8187000D01*
X8222000Y5978000D02*
Y6468000D01*
Y5978000D02*
X8542000D01*
Y6468000D01*
X8222000D02*
X8542000D01*
X9288000Y5719089D02*
Y5964911D01*
X9508000Y5719089D02*
Y5964911D01*
X9288000Y4780697D02*
Y5026519D01*
X9508000Y4780697D02*
Y5026519D01*
X8927000Y4228000D02*
Y4378000D01*
X9107000Y4228000D02*
Y4408000D01*
X9157000Y4478000D02*
X9167000D01*
X8726000Y4258000D02*
Y4408000D01*
X8546000Y4228000D02*
Y4408000D01*
X8486000Y4158000D02*
X8496000D01*
X9288000Y4399697D02*
Y4645519D01*
X9508000Y4399697D02*
Y4645519D01*
X10050000Y6481089D02*
Y6726911D01*
X10270000Y6481089D02*
Y6726911D01*
X12973500Y2601000D02*
Y6641000D01*
X13188499D01*
Y2601000D02*
Y6641000D01*
X12973500Y2601000D02*
X13188499D01*
X9671500Y2617000D02*
Y6657000D01*
X9886500D01*
Y2617000D02*
Y6657000D01*
X9671500Y2617000D02*
X9886500D01*
X12344000Y6551000D02*
Y7226000D01*
X10544000D02*
X12344000D01*
X10544000Y6551000D02*
Y7226000D01*
D30*
X10444000Y6477000D02*
G03*
X10454000Y6477000I5000J0D01*
G01*
D02*
G03*
X10444000Y6477000I-5000J0D01*
G01*
D31*
X9304020Y5123180D02*
Y5275531D01*
X9380195D01*
X9405587Y5250139D01*
Y5199355D01*
X9380195Y5173963D01*
X9304020D01*
X9354803D02*
X9405587Y5123180D01*
X9557938Y5275531D02*
X9507154Y5250139D01*
X9456371Y5199355D01*
Y5148572D01*
X9481763Y5123180D01*
X9532546D01*
X9557938Y5148572D01*
Y5173963D01*
X9532546Y5199355D01*
X9456371D01*
X9304020Y6441440D02*
Y6593791D01*
X9380195D01*
X9405587Y6568399D01*
Y6517615D01*
X9380195Y6492223D01*
X9304020D01*
X9354803D02*
X9405587Y6441440D01*
X9456371Y6568399D02*
X9481763Y6593791D01*
X9532546D01*
X9557938Y6568399D01*
Y6543007D01*
X9532546Y6517615D01*
X9507154D01*
X9532546D01*
X9557938Y6492223D01*
Y6466832D01*
X9532546Y6441440D01*
X9481763D01*
X9456371Y6466832D01*
X7556500Y5943600D02*
Y6095951D01*
X7632675D01*
X7658067Y6070559D01*
Y6019775D01*
X7632675Y5994383D01*
X7556500D01*
X7708851Y6070559D02*
X7734243Y6095951D01*
X7785026D01*
X7810418Y6070559D01*
Y6045167D01*
X7785026Y6019775D01*
X7759634D01*
X7785026D01*
X7810418Y5994383D01*
Y5968992D01*
X7785026Y5943600D01*
X7734243D01*
X7708851Y5968992D01*
X8031480Y6728411D02*
X8082263D01*
X8056872D01*
Y6576060D01*
X8031480D01*
X8082263D01*
X8260006Y6703019D02*
X8234614Y6728411D01*
X8183831D01*
X8158439Y6703019D01*
Y6601452D01*
X8183831Y6576060D01*
X8234614D01*
X8260006Y6601452D01*
X8412357Y6576060D02*
X8310790D01*
X8412357Y6677627D01*
Y6703019D01*
X8386965Y6728411D01*
X8336181D01*
X8310790Y6703019D01*
X8846820Y5506671D02*
Y5354320D01*
X8922995D01*
X8948387Y5379712D01*
Y5481279D01*
X8922995Y5506671D01*
X8846820D01*
X9100738Y5354320D02*
X8999171D01*
X9100738Y5455887D01*
Y5481279D01*
X9075346Y5506671D01*
X9024563D01*
X8999171Y5481279D01*
X8465820Y5506671D02*
Y5354320D01*
X8541995D01*
X8567387Y5379712D01*
Y5481279D01*
X8541995Y5506671D01*
X8465820D01*
X8618171Y5354320D02*
X8668954D01*
X8643563D01*
Y5506671D01*
X8618171Y5481279D01*
X9052527Y6827479D02*
X9027135Y6852871D01*
X8976352D01*
X8950960Y6827479D01*
Y6725912D01*
X8976352Y6700520D01*
X9027135D01*
X9052527Y6725912D01*
X9103311Y6827479D02*
X9128703Y6852871D01*
X9179486D01*
X9204878Y6827479D01*
Y6802087D01*
X9179486Y6776695D01*
X9154094D01*
X9179486D01*
X9204878Y6751303D01*
Y6725912D01*
X9179486Y6700520D01*
X9128703D01*
X9103311Y6725912D01*
X10066020Y6822440D02*
Y6974791D01*
X10142195D01*
X10167587Y6949399D01*
Y6898615D01*
X10142195Y6873223D01*
X10066020D01*
X10116803D02*
X10167587Y6822440D01*
X10218371D02*
X10269154D01*
X10243763D01*
Y6974791D01*
X10218371Y6949399D01*
X12976860Y6738620D02*
Y6890971D01*
X13053035D01*
X13078427Y6865579D01*
Y6814795D01*
X13053035Y6789403D01*
X12976860D01*
X13230779Y6738620D02*
X13129211D01*
X13230779Y6840187D01*
Y6865579D01*
X13205386Y6890971D01*
X13154604D01*
X13129211Y6865579D01*
X9674860Y6756400D02*
Y6908751D01*
X9751035D01*
X9776427Y6883359D01*
Y6832575D01*
X9751035Y6807183D01*
X9674860D01*
X9827211Y6756400D02*
X9877994D01*
X9852603D01*
Y6908751D01*
X9827211Y6883359D01*
X10414000Y7558991D02*
X10464783D01*
X10439392D01*
Y7406640D01*
X10414000D01*
X10464783D01*
X10642526Y7533599D02*
X10617134Y7558991D01*
X10566351D01*
X10540959Y7533599D01*
Y7432032D01*
X10566351Y7406640D01*
X10617134D01*
X10642526Y7432032D01*
X10693310Y7406640D02*
X10744093D01*
X10718701D01*
Y7558991D01*
X10693310Y7533599D01*
%TF.MD5,1a3f5a1a77b581a777b5cc715f9ecd77*%
M02*
