%TF.GenerationSoftware,Altium Limited,Altium Designer,25.8.1 (18)*%
G04 Layer_Color=8388736*
%FSLAX45Y45*%
%MOMM*%
%TF.SameCoordinates,D030ABF7-A58C-4A07-9546-7BFCEFCD6942*%
%TF.FilePolarity,Negative*%
%TF.FileFunction,Soldermask,Top*%
%TF.Part,Single*%
G01*
G75*
%TA.AperFunction,SMDPad,CuDef*%
%ADD10R,1.30707X0.90606*%
%TA.AperFunction,ConnectorPad*%
%ADD33R,1.70320X1.10320*%
%TA.AperFunction,SMDPad,CuDef*%
%ADD34R,1.72820X0.85320*%
%ADD35R,1.40320X1.40320*%
%ADD36R,1.67320X1.22320*%
%TA.AperFunction,BGAPad,CuDef*%
%ADD37R,1.10320X1.10320*%
%TA.AperFunction,ConnectorPad*%
%ADD38R,1.10320X1.70320*%
%TA.AperFunction,ComponentPad*%
%ADD39O,1.35320X1.25320*%
%ADD40C,1.60320*%
%ADD41C,1.75320*%
%ADD42R,1.75320X1.75320*%
G04:AMPARAMS|DCode=43|XSize=1.6032mm|YSize=1.6032mm|CornerRadius=0.4516mm|HoleSize=0mm|Usage=FLASHONLY|Rotation=90.000|XOffset=0mm|YOffset=0mm|HoleType=Round|Shape=RoundedRectangle|*
%AMROUNDEDRECTD43*
21,1,1.60320,0.70000,0,0,90.0*
21,1,0.70000,1.60320,0,0,90.0*
1,1,0.90320,0.35000,0.35000*
1,1,0.90320,0.35000,-0.35000*
1,1,0.90320,-0.35000,-0.35000*
1,1,0.90320,-0.35000,0.35000*
%
%ADD43ROUNDEDRECTD43*%
%TA.AperFunction,ViaPad*%
%ADD44C,1.47320*%
D10*
X8255000Y5665608D02*
D03*
Y5510392D02*
D03*
Y5284608D02*
D03*
Y5129392D02*
D03*
X9398000Y4445000D02*
D03*
Y5764392D02*
D03*
Y6300608D02*
D03*
Y6145392D02*
D03*
Y5919608D02*
D03*
Y4981216D02*
D03*
Y4826000D02*
D03*
Y4600216D02*
D03*
X10160000Y6681608D02*
D03*
Y6526392D02*
D03*
D33*
X10569000Y5969000D02*
D03*
Y6477000D02*
D03*
X12319000D02*
D03*
Y6350000D02*
D03*
Y6223000D02*
D03*
Y6096000D02*
D03*
Y5969000D02*
D03*
Y5842000D02*
D03*
Y5715000D02*
D03*
Y5588000D02*
D03*
Y5461000D02*
D03*
Y5334000D02*
D03*
Y5207000D02*
D03*
Y5080000D02*
D03*
Y4953000D02*
D03*
Y4826000D02*
D03*
X10569000D02*
D03*
Y4953000D02*
D03*
Y5080000D02*
D03*
Y5207000D02*
D03*
Y5334000D02*
D03*
Y5461000D02*
D03*
Y5588000D02*
D03*
Y5715000D02*
D03*
Y5842000D02*
D03*
Y6096000D02*
D03*
Y6223000D02*
D03*
Y6350000D02*
D03*
D34*
X8653200Y6032500D02*
D03*
Y6413500D02*
D03*
Y6286500D02*
D03*
Y6159500D02*
D03*
X8110800Y6032500D02*
D03*
Y6159500D02*
D03*
Y6286500D02*
D03*
Y6413500D02*
D03*
D35*
X8636000Y4478000D02*
D03*
Y4793000D02*
D03*
X9017000D02*
D03*
Y5113000D02*
D03*
X8636000D02*
D03*
X9017000Y4478000D02*
D03*
Y4158000D02*
D03*
X8636000D02*
D03*
D36*
X9017000Y6557000D02*
D03*
Y5889000D02*
D03*
X10160000Y6143000D02*
D03*
X9017000Y6049000D02*
D03*
Y6397000D02*
D03*
X10160000Y6303000D02*
D03*
D37*
X11294000Y5845000D02*
D03*
X11434000D02*
D03*
Y5705000D02*
D03*
Y5565000D02*
D03*
X11294000D02*
D03*
X11154000D02*
D03*
Y5705000D02*
D03*
Y5845000D02*
D03*
X11294000Y5705000D02*
D03*
D38*
X12142500Y4701000D02*
D03*
X12015500D02*
D03*
X11888500D02*
D03*
X11761500D02*
D03*
X11634500D02*
D03*
X11507500D02*
D03*
X11380500D02*
D03*
X11253500D02*
D03*
X11126500D02*
D03*
X10999500D02*
D03*
X10872500D02*
D03*
X10745500D02*
D03*
D39*
X11219500Y2979000D02*
D03*
X11664500D02*
D03*
D40*
X9779000Y5737000D02*
D03*
X13081000Y6521000D02*
D03*
Y3921000D02*
D03*
Y3721000D02*
D03*
Y3521000D02*
D03*
Y3321000D02*
D03*
Y2921000D02*
D03*
Y3121000D02*
D03*
Y4121000D02*
D03*
Y4321000D02*
D03*
Y4521000D02*
D03*
Y4721000D02*
D03*
Y4921000D02*
D03*
Y5121000D02*
D03*
Y5321000D02*
D03*
Y5521000D02*
D03*
Y5721000D02*
D03*
Y5921000D02*
D03*
Y6121000D02*
D03*
Y6321000D02*
D03*
X9779000Y3937000D02*
D03*
Y3737000D02*
D03*
Y3537000D02*
D03*
Y3337000D02*
D03*
Y2937000D02*
D03*
Y3137000D02*
D03*
Y4137000D02*
D03*
Y4337000D02*
D03*
Y4537000D02*
D03*
Y4737000D02*
D03*
Y4937000D02*
D03*
Y5137000D02*
D03*
Y5337000D02*
D03*
Y5537000D02*
D03*
Y5937000D02*
D03*
Y6137000D02*
D03*
Y6337000D02*
D03*
Y6537000D02*
D03*
D41*
X7747000Y5207000D02*
D03*
Y4953000D02*
D03*
Y4699000D02*
D03*
Y5461000D02*
D03*
Y5715000D02*
D03*
D42*
Y4445000D02*
D03*
D43*
X13081000Y2721000D02*
D03*
X9779000Y2737000D02*
D03*
D44*
X11434000Y5565000D02*
D03*
X11294000D02*
D03*
X11154000D02*
D03*
Y5705000D02*
D03*
X11294000D02*
D03*
X11434000D02*
D03*
Y5845000D02*
D03*
X11294000D02*
D03*
X11154000D02*
D03*
X10350500Y6159500D02*
D03*
X12700000Y6667500D02*
D03*
X9017000Y5715000D02*
D03*
X8763000Y6667500D02*
D03*
X10795000Y6477000D02*
D03*
X9398000Y4191000D02*
D03*
X8318500Y4635500D02*
D03*
X8001000Y5143500D02*
D03*
X10795000Y4889500D02*
D03*
Y5080000D02*
D03*
%TF.MD5,022fbbe335315c08d00579b77983ff7b*%
M02*
