%TF.GenerationSoftware,Altium Limited,Altium Designer,25.8.1 (18)*%
G04 Layer_Color=0*
%FSLAX45Y45*%
%MOMM*%
%TF.SameCoordinates,D030ABF7-A58C-4A07-9546-7BFCEFCD6942*%
%TF.FilePolarity,Positive*%
%TF.FileFunction,Plated,1,2,PTH,Drill*%
%TF.Part,Single*%
G01*
G75*
%TA.AperFunction,ComponentDrill*%
%ADD49O,0.75000X0.65000*%
%ADD50C,0.90000*%
%ADD51C,1.02000*%
%TA.AperFunction,ViaDrill,NotFilled*%
%ADD52C,0.71120*%
D49*
X11219500Y2979000D02*
D03*
X11664500D02*
D03*
D50*
X9779000Y5737000D02*
D03*
X13081000Y6521000D02*
D03*
Y3921000D02*
D03*
Y3721000D02*
D03*
Y3521000D02*
D03*
Y3321000D02*
D03*
Y2921000D02*
D03*
Y2721000D02*
D03*
Y3121000D02*
D03*
Y4121000D02*
D03*
Y4321000D02*
D03*
Y4521000D02*
D03*
Y4721000D02*
D03*
Y4921000D02*
D03*
Y5121000D02*
D03*
Y5321000D02*
D03*
Y5521000D02*
D03*
Y5721000D02*
D03*
Y5921000D02*
D03*
Y6121000D02*
D03*
Y6321000D02*
D03*
X9779000Y3937000D02*
D03*
Y3737000D02*
D03*
Y3537000D02*
D03*
Y3337000D02*
D03*
Y2937000D02*
D03*
Y2737000D02*
D03*
Y3137000D02*
D03*
Y4137000D02*
D03*
Y4337000D02*
D03*
Y4537000D02*
D03*
Y4737000D02*
D03*
Y4937000D02*
D03*
Y5137000D02*
D03*
Y5337000D02*
D03*
Y5537000D02*
D03*
Y5937000D02*
D03*
Y6137000D02*
D03*
Y6337000D02*
D03*
Y6537000D02*
D03*
D51*
X7747000Y5207000D02*
D03*
Y4445000D02*
D03*
Y4953000D02*
D03*
Y4699000D02*
D03*
Y5461000D02*
D03*
Y5715000D02*
D03*
D52*
X11434000Y5565000D02*
D03*
X11294000D02*
D03*
X11154000D02*
D03*
Y5705000D02*
D03*
X11294000D02*
D03*
X11434000D02*
D03*
Y5845000D02*
D03*
X11294000D02*
D03*
X11154000D02*
D03*
X10350500Y6159500D02*
D03*
X12700000Y6667500D02*
D03*
X9017000Y5715000D02*
D03*
X8763000Y6667500D02*
D03*
X10795000Y6477000D02*
D03*
X9398000Y4191000D02*
D03*
X8318500Y4635500D02*
D03*
X8001000Y5143500D02*
D03*
X10795000Y4889500D02*
D03*
Y5080000D02*
D03*
%TF.MD5,d03b8de0fa7e96877fda1c8a4af75afe*%
M02*
