G04*
G04 #@! TF.GenerationSoftware,Altium Limited,Altium Designer,25.8.1 (18)*
G04*
G04 Layer_Color=8421504*
%FSLAX44Y44*%
%MOMM*%
G71*
G04*
G04 #@! TF.SameCoordinates,F83B8B20-63E5-468B-AA92-8036A68B70BD*
G04*
G04*
G04 #@! TF.FilePolarity,Positive*
G04*
G01*
G75*
%ADD14R,1.3071X0.9061*%
%ADD15R,1.5000X0.9000*%
%ADD16R,1.5250X0.6500*%
%ADD17R,1.2000X1.2000*%
%ADD18R,1.4700X1.0200*%
%ADD19R,0.9000X0.9000*%
%ADD20R,0.9000X1.5000*%
D14*
X825500Y566561D02*
D03*
Y551039D02*
D03*
Y528461D02*
D03*
Y512939D02*
D03*
X939800Y444500D02*
D03*
Y576439D02*
D03*
Y630061D02*
D03*
Y614539D02*
D03*
Y591961D02*
D03*
Y498122D02*
D03*
Y482600D02*
D03*
Y460022D02*
D03*
X1016000Y668161D02*
D03*
Y652639D02*
D03*
D15*
X1056900Y596900D02*
D03*
Y647700D02*
D03*
X1231900D02*
D03*
Y635000D02*
D03*
Y622300D02*
D03*
Y609600D02*
D03*
Y596900D02*
D03*
Y584200D02*
D03*
Y571500D02*
D03*
Y558800D02*
D03*
Y546100D02*
D03*
Y533400D02*
D03*
Y520700D02*
D03*
Y508000D02*
D03*
Y495300D02*
D03*
Y482600D02*
D03*
X1056900D02*
D03*
Y495300D02*
D03*
Y508000D02*
D03*
Y520700D02*
D03*
Y533400D02*
D03*
Y546100D02*
D03*
Y558800D02*
D03*
Y571500D02*
D03*
Y584200D02*
D03*
Y609600D02*
D03*
Y622300D02*
D03*
Y635000D02*
D03*
D16*
X865320Y603250D02*
D03*
Y641350D02*
D03*
Y628650D02*
D03*
Y615950D02*
D03*
X811080Y603250D02*
D03*
Y615950D02*
D03*
Y628650D02*
D03*
Y641350D02*
D03*
D17*
X863600Y447800D02*
D03*
Y479300D02*
D03*
X901700D02*
D03*
Y511300D02*
D03*
X863600D02*
D03*
X901700Y447800D02*
D03*
Y415800D02*
D03*
X863600D02*
D03*
D18*
X901700Y655700D02*
D03*
Y588900D02*
D03*
X1016000Y614300D02*
D03*
X901700Y604900D02*
D03*
Y639700D02*
D03*
X1016000Y630300D02*
D03*
D19*
X1129400Y584500D02*
D03*
X1143400D02*
D03*
Y570500D02*
D03*
Y556500D02*
D03*
X1129400D02*
D03*
X1115400D02*
D03*
Y570500D02*
D03*
Y584500D02*
D03*
X1129400Y570500D02*
D03*
D20*
X1214250Y470100D02*
D03*
X1201550D02*
D03*
X1188850D02*
D03*
X1176150D02*
D03*
X1163450D02*
D03*
X1150750D02*
D03*
X1138050D02*
D03*
X1125350D02*
D03*
X1112650D02*
D03*
X1099950D02*
D03*
X1087250D02*
D03*
X1074550D02*
D03*
M02*
