G04*
G04 #@! TF.GenerationSoftware,Altium Limited,Altium Designer,25.8.1 (18)*
G04*
G04 Layer_Color=16711935*
%FSLAX44Y44*%
%MOMM*%
G71*
G04*
G04 #@! TF.SameCoordinates,F83B8B20-63E5-468B-AA92-8036A68B70BD*
G04*
G04*
G04 #@! TF.FilePolarity,Negative*
G04*
G01*
G75*
%ADD27O,1.3532X1.2532*%
%ADD28C,1.6032*%
%ADD29C,1.7532*%
%ADD30R,1.7532X1.7532*%
G04:AMPARAMS|DCode=31|XSize=1.6032mm|YSize=1.6032mm|CornerRadius=0.4516mm|HoleSize=0mm|Usage=FLASHONLY|Rotation=90.000|XOffset=0mm|YOffset=0mm|HoleType=Round|Shape=RoundedRectangle|*
%AMROUNDEDRECTD31*
21,1,1.6032,0.7000,0,0,90.0*
21,1,0.7000,1.6032,0,0,90.0*
1,1,0.9032,0.3500,0.3500*
1,1,0.9032,0.3500,-0.3500*
1,1,0.9032,-0.3500,-0.3500*
1,1,0.9032,-0.3500,0.3500*
%
%ADD31ROUNDEDRECTD31*%
%ADD32C,1.4732*%
%ADD43O,0.9532X1.5032*%
%ADD44R,0.6032X1.5532*%
%ADD45R,2.0032X2.1032*%
G36*
X1118333Y277209D02*
X1118464Y277183D01*
X1118590Y277141D01*
X1118709Y277082D01*
X1118820Y277008D01*
X1118920Y276920D01*
X1119008Y276820D01*
X1119082Y276709D01*
X1119141Y276590D01*
X1119184Y276464D01*
X1119210Y276333D01*
X1119218Y276200D01*
Y257200D01*
X1119210Y257067D01*
X1119184Y256936D01*
X1119141Y256810D01*
X1119082Y256691D01*
X1119008Y256580D01*
X1118920Y256480D01*
X1118820Y256392D01*
X1118709Y256318D01*
X1118590Y256259D01*
X1118464Y256217D01*
X1118333Y256190D01*
X1118200Y256182D01*
X1100507D01*
X1100374Y256190D01*
X1100243Y256217D01*
X1100117Y256259D01*
X1097912Y257173D01*
X1097912Y257173D01*
X1097853Y257202D01*
X1097792Y257232D01*
X1097755Y257256D01*
X1097681Y257306D01*
X1097635Y257347D01*
X1097581Y257393D01*
X1097581Y257394D01*
X1095894Y259081D01*
X1095893Y259081D01*
X1095806Y259181D01*
X1095732Y259292D01*
X1095673Y259412D01*
X1094759Y261617D01*
X1094716Y261743D01*
X1094690Y261874D01*
X1094682Y262006D01*
D01*
Y262006D01*
Y263200D01*
Y270200D01*
Y271394D01*
X1094690Y271526D01*
X1094716Y271657D01*
X1094759Y271783D01*
X1095673Y273988D01*
X1095673Y273988D01*
X1095702Y274047D01*
X1095732Y274108D01*
X1095756Y274144D01*
X1095806Y274219D01*
X1095847Y274265D01*
X1095893Y274319D01*
X1095894Y274319D01*
X1097581Y276007D01*
X1097681Y276094D01*
X1097792Y276168D01*
X1097912Y276227D01*
X1100117Y277141D01*
X1100243Y277183D01*
X1100374Y277209D01*
X1100507Y277218D01*
X1118200D01*
X1118333Y277209D01*
D02*
G37*
G36*
X1188026D02*
X1188157Y277183D01*
X1188283Y277141D01*
X1190488Y276227D01*
X1190608Y276168D01*
X1190719Y276094D01*
X1190819Y276007D01*
X1192506Y274319D01*
X1192506Y274319D01*
X1192594Y274219D01*
X1192668Y274108D01*
X1192727Y273988D01*
X1192727Y273988D01*
X1193641Y271783D01*
X1193641Y271783D01*
X1193669Y271700D01*
X1193683Y271657D01*
X1193709Y271526D01*
X1193718Y271394D01*
Y271394D01*
D01*
Y270200D01*
Y263200D01*
Y262006D01*
X1193709Y261874D01*
X1193683Y261743D01*
X1193641Y261617D01*
X1192727Y259412D01*
X1192668Y259292D01*
X1192594Y259181D01*
X1192506Y259081D01*
X1190819Y257394D01*
X1190819Y257393D01*
X1190765Y257347D01*
X1190719Y257306D01*
X1190645Y257256D01*
X1190608Y257232D01*
X1190547Y257202D01*
X1190488Y257173D01*
X1190488Y257173D01*
X1188283Y256259D01*
X1188157Y256217D01*
X1188026Y256190D01*
X1187894Y256182D01*
X1170200D01*
X1170067Y256190D01*
X1169937Y256217D01*
X1169810Y256259D01*
X1169691Y256318D01*
X1169580Y256392D01*
X1169480Y256480D01*
X1169392Y256580D01*
X1169318Y256691D01*
X1169259Y256810D01*
X1169217Y256936D01*
X1169191Y257067D01*
X1169182Y257200D01*
Y276200D01*
X1169191Y276333D01*
X1169217Y276464D01*
X1169259Y276590D01*
X1169318Y276709D01*
X1169392Y276820D01*
X1169480Y276920D01*
X1169580Y277008D01*
X1169691Y277082D01*
X1169810Y277141D01*
X1169937Y277183D01*
X1170067Y277209D01*
X1170200Y277218D01*
X1187894D01*
X1188026Y277209D01*
D02*
G37*
D27*
X1121950Y297900D02*
D03*
X1166450D02*
D03*
D28*
X977900Y573700D02*
D03*
X1308100Y652100D02*
D03*
Y392100D02*
D03*
Y372100D02*
D03*
Y352100D02*
D03*
Y332100D02*
D03*
Y292100D02*
D03*
Y312100D02*
D03*
Y412100D02*
D03*
Y432100D02*
D03*
Y452100D02*
D03*
Y472100D02*
D03*
Y492100D02*
D03*
Y512100D02*
D03*
Y532100D02*
D03*
Y552100D02*
D03*
Y572100D02*
D03*
Y592100D02*
D03*
Y612100D02*
D03*
Y632100D02*
D03*
X977900Y393700D02*
D03*
Y373700D02*
D03*
Y353700D02*
D03*
Y333700D02*
D03*
Y293700D02*
D03*
Y313700D02*
D03*
Y413700D02*
D03*
Y433700D02*
D03*
Y453700D02*
D03*
Y473700D02*
D03*
Y493700D02*
D03*
Y513700D02*
D03*
Y533700D02*
D03*
Y553700D02*
D03*
Y593700D02*
D03*
Y613700D02*
D03*
Y633700D02*
D03*
Y653700D02*
D03*
D29*
X774700Y520700D02*
D03*
Y495300D02*
D03*
Y469900D02*
D03*
Y546100D02*
D03*
Y571500D02*
D03*
D30*
Y444500D02*
D03*
D31*
X1308100Y272100D02*
D03*
X977900Y273700D02*
D03*
D32*
X1143400Y556500D02*
D03*
X1129400D02*
D03*
X1115400D02*
D03*
Y570500D02*
D03*
X1129400D02*
D03*
X1143400D02*
D03*
Y584500D02*
D03*
X1129400D02*
D03*
X1115400D02*
D03*
X1035050Y615950D02*
D03*
X1270000Y666750D02*
D03*
X901700Y571500D02*
D03*
X876300Y666750D02*
D03*
X1079500Y647700D02*
D03*
X939800Y419100D02*
D03*
X831850Y463550D02*
D03*
X800100Y514350D02*
D03*
X1079500Y488950D02*
D03*
Y508000D02*
D03*
D43*
X1185950Y266700D02*
D03*
X1102450D02*
D03*
D44*
X1137700Y294700D02*
D03*
X1144200D02*
D03*
X1150700D02*
D03*
X1131200D02*
D03*
X1157200D02*
D03*
D45*
X1155700Y266700D02*
D03*
X1132700D02*
D03*
M02*
